<svg width="1900" height="186" viewBox="0 0 1913 186" fill="none" xmlns="http://www.w3.org/2000/svg">
<path d="M1 115.132C146.667 66.2988 509.9 -2.06791 797.5 115.132C1085.1 232.332 1416 63.6328 1416 63.6328C1416 63.6328 1643.5 -39.3672 1912.5 115.132" stroke="#045569"/>
<circle cx="1518" cy="35" r="34.5" fill="white" stroke="#43606E"/>
<circle cx="1518" cy="35" r="26" fill="#ADD7D6"/>
<circle cx="953" cy="151" r="34.5" fill="white" stroke="#43606E"/>
<circle cx="953" cy="151" r="26" fill="#ADD7D6"/>
<circle cx="388" cy="51" r="34.5" fill="white" stroke="#43606E"/>
<circle cx="388" cy="51" r="26" fill="#ADD7D6"/>
<path d="M381.72 44.08L387.36 40H390.84V61H386.73V44.65L383.85 46.84L381.72 44.08Z" fill="white"/>
<path d="M945.32 145.08C947.36 142.14 950 140.67 953.24 140.67C955.48 140.69 957.24 141.27 958.52 142.41C959.82 143.55 960.47 144.93 960.47 146.55C960.47 147.25 960.34 147.97 960.08 148.71C959.82 149.45 959.54 150.09 959.24 150.63C958.94 151.15 958.45 151.81 957.77 152.61C957.11 153.39 956.6 153.97 956.24 154.35C955.9 154.71 955.31 155.3 954.47 156.12C954.29 156.3 954.16 156.43 954.08 156.51L951.92 158.64H960.29V162H946.22V159.15L950.21 155.25C950.31 155.15 950.68 154.79 951.32 154.17C951.98 153.53 952.4 153.11 952.58 152.91C952.78 152.69 953.14 152.3 953.66 151.74C954.2 151.18 954.57 150.75 954.77 150.45C954.99 150.13 955.25 149.73 955.55 149.25C955.87 148.77 956.08 148.33 956.18 147.93C956.3 147.51 956.36 147.11 956.36 146.73C956.36 145.87 956.07 145.21 955.49 144.75C954.91 144.29 954.11 144.06 953.09 144.06C952.49 144.06 951.9 144.17 951.32 144.39C950.76 144.61 950.29 144.87 949.91 145.17C949.53 145.47 949.19 145.78 948.89 146.1C948.59 146.4 948.37 146.66 948.23 146.88L948.02 147.21L945.32 145.08Z" fill="white"/>
<path d="M1509.32 43.06L1511.6 40.51C1512.1 41.25 1512.87 41.85 1513.91 42.31C1514.97 42.75 1516.06 42.97 1517.18 42.97C1518.36 42.97 1519.38 42.69 1520.24 42.13C1521.1 41.55 1521.53 40.75 1521.53 39.73C1521.53 38.95 1521.22 38.31 1520.6 37.81C1520 37.31 1519.32 36.98 1518.56 36.82C1517.8 36.66 1516.97 36.58 1516.07 36.58L1513.85 36.61L1513.88 33.55L1515.98 33.52C1517.06 33.5 1518.03 33.21 1518.89 32.65C1519.75 32.09 1520.17 31.31 1520.15 30.31C1520.13 29.69 1519.86 29.15 1519.34 28.69C1518.82 28.23 1518.07 28 1517.09 28C1516.45 28 1515.84 28.09 1515.26 28.27C1514.7 28.43 1514.23 28.63 1513.85 28.87C1513.49 29.11 1513.17 29.37 1512.89 29.65C1512.61 29.91 1512.41 30.13 1512.29 30.31C1512.19 30.47 1512.13 30.57 1512.11 30.61L1509.5 28.63C1510.28 27.29 1511.35 26.29 1512.71 25.63C1514.09 24.97 1515.62 24.64 1517.3 24.64C1519.18 24.64 1520.81 25.1 1522.19 26.02C1523.57 26.92 1524.26 28.23 1524.26 29.95C1524.26 30.89 1523.93 31.82 1523.27 32.74C1522.61 33.66 1521.82 34.28 1520.9 34.6C1522.2 34.82 1523.31 35.43 1524.23 36.43C1525.17 37.43 1525.64 38.59 1525.64 39.91C1525.64 41.67 1524.89 43.18 1523.39 44.44C1521.91 45.7 1519.88 46.33 1517.3 46.33C1516.62 46.33 1515.97 46.28 1515.35 46.18C1514.73 46.1 1514.19 46 1513.73 45.88C1513.27 45.74 1512.82 45.58 1512.38 45.4C1511.96 45.2 1511.61 45.01 1511.33 44.83C1511.05 44.65 1510.77 44.45 1510.49 44.23C1510.23 44.01 1510.04 43.84 1509.92 43.72C1509.8 43.58 1509.67 43.44 1509.53 43.3L1509.32 43.06Z" fill="white"/>
</svg>
