<svg width="143" height="63" viewBox="0 0 143 63" fill="none" xmlns="http://www.w3.org/2000/svg">
<g clip-path="url(#clip0_260_120)">
<path d="M68.0527 42.5999L68.0244 42.3857H69.0418C69.7483 42.3857 70.2005 42.3142 70.3701 42.1571C70.5396 41.9999 70.6244 41.5999 70.6244 40.9571V24.9142C70.6244 24.2571 70.5396 23.8571 70.3701 23.7142C70.2005 23.5571 69.7625 23.4857 69.0418 23.4857H68.0244V23.2428H75.6831C78.0288 23.2428 79.9081 23.7857 81.3353 24.8857C82.7625 25.9857 83.469 27.4285 83.469 29.2142C83.469 30.8285 82.8755 32.1714 81.7168 33.2285C80.544 34.2857 79.0462 34.8999 77.2516 35.0571L76.6581 35.0857V35.2428C77.3222 35.2999 77.9581 35.4999 78.5375 35.8428C79.1309 36.1857 79.5831 36.5999 79.9081 37.0999L81.3777 39.2285C81.4201 39.2857 81.5331 39.4571 81.7027 39.7142C81.8722 39.9714 82.0135 40.1571 82.0983 40.2714C82.1831 40.3857 82.3103 40.5428 82.4798 40.7714C82.6494 40.9999 82.7907 41.1571 82.9038 41.2714C83.0168 41.3857 83.1581 41.4999 83.3277 41.6285C83.4972 41.7571 83.6527 41.8571 83.8081 41.9142C83.9635 41.9714 84.119 41.9999 84.2744 41.9999C84.5288 41.9999 84.8255 41.8857 85.1364 41.6714L85.7722 41.1571L85.9277 41.3571L85.2918 41.8714C84.3733 42.5571 83.5679 42.8999 82.8472 42.8999C82.494 42.8999 82.1549 42.8285 81.8299 42.6857C81.5049 42.5428 81.194 42.3142 80.8972 42.0142C80.6005 41.6999 80.3462 41.4285 80.1483 41.1857C79.9505 40.9428 79.7103 40.5999 79.4135 40.1857L77.3646 37.2571C76.8135 36.4857 76.3331 35.9428 75.9516 35.6428C75.5701 35.3428 75.0755 35.1857 74.4538 35.1857H74.1005V34.7285H75.4288C77.2092 34.7285 78.5657 34.2571 79.5125 33.2999C80.4592 32.3571 80.9255 30.9857 80.9255 29.1857C80.9255 27.3999 80.4592 26.0285 79.5125 25.0857C78.5657 24.1428 77.2092 23.6714 75.4288 23.6714H72.3907V23.6999C72.7157 23.9999 72.8712 24.4714 72.8712 25.1142V40.9142C72.8712 41.5571 72.9559 41.9571 73.1396 42.1142C73.3233 42.2714 73.7614 42.3571 74.4679 42.3571H76.1777V42.5999H68.0527Z" fill="#77C6C4"/>
<path d="M82.861 43.0857C82.4794 43.0857 82.112 43.0143 81.7729 42.8571C81.4338 42.7 81.0946 42.4571 80.7838 42.1428C80.4729 41.8286 80.2186 41.5428 80.0207 41.3C79.8229 41.0571 79.5827 40.7286 79.286 40.2857L77.237 37.3571C76.7001 36.6 76.2338 36.0714 75.8523 35.7857C75.499 35.5143 75.0327 35.3714 74.4675 35.3714H73.9447V34.5571H75.4566C77.1805 34.5571 78.5088 34.1 79.4131 33.1857C80.3175 32.2714 80.7697 30.9428 80.7697 29.2C80.7697 27.4571 80.3175 26.1286 79.4131 25.2286C78.5088 24.3286 77.1805 23.8714 75.4425 23.8714H72.7577C72.9555 24.1857 73.0686 24.6143 73.0686 25.1286V40.9286C73.0686 41.7 73.1957 41.9286 73.2805 41.9857C73.3653 42.0571 73.6338 42.1857 74.4957 42.1857H76.3751V42.7857H67.8827L67.8262 42.2143H69.0414C69.9457 42.2143 70.186 42.0857 70.2425 42.0286C70.299 41.9714 70.4403 41.7571 70.4403 40.9571V24.9143C70.4403 24.1143 70.299 23.9 70.2425 23.8428C70.186 23.7857 69.9457 23.6571 69.0414 23.6571H67.8544V23.0571H75.6827C78.0566 23.0571 79.9925 23.6286 81.4479 24.7428C82.9175 25.8714 83.6523 27.3714 83.6523 29.2143C83.6523 30.8714 83.0447 32.2714 81.8294 33.3571C80.6849 34.3857 79.2294 35.0143 77.4914 35.2C77.887 35.3143 78.2686 35.4714 78.6218 35.6857C79.2294 36.0428 79.7099 36.4857 80.049 36.9857L81.5186 39.1143C81.561 39.1714 81.674 39.3428 81.8577 39.6C82.0273 39.8571 82.1686 40.0428 82.2392 40.1571L82.6207 40.6571C82.7903 40.8714 82.9175 41.0286 83.0305 41.1286C83.1436 41.2286 83.2849 41.3571 83.4403 41.4857C83.5816 41.6 83.737 41.6857 83.8783 41.7428C84.2316 41.8714 84.599 41.8428 85.0512 41.5143L85.8142 40.9L86.1957 41.3857L85.4186 42.0143C84.4718 42.7286 83.6099 43.0857 82.861 43.0857ZM74.2979 35H74.4675C75.1175 35 75.6544 35.1714 76.0642 35.4857C76.474 35.8 76.9403 36.3428 77.5055 37.1286L79.5544 40.0571C79.8512 40.4714 80.0914 40.8143 80.2751 41.0571C80.4588 41.3 80.699 41.5714 81.0099 41.8714C81.2925 42.1571 81.5892 42.3714 81.9001 42.5143C82.6631 42.8571 83.5392 42.7714 84.5707 42.1428C84.274 42.2143 84.0196 42.1857 83.737 42.0857C83.5675 42.0286 83.3838 41.9143 83.2001 41.7714C83.0305 41.6428 82.8892 41.5143 82.762 41.4C82.6349 41.2857 82.4936 41.1143 82.3099 40.8714L81.9283 40.3714C81.8436 40.2571 81.7164 40.0714 81.5327 39.8C81.349 39.5428 81.2501 39.3714 81.2077 39.3143L79.7381 37.1857C79.4273 36.7143 78.9751 36.3143 78.424 35.9857C77.8588 35.6571 77.2512 35.4571 76.6153 35.4L76.4599 35.3857V34.9L77.2229 34.8714C78.961 34.7143 80.4305 34.1143 81.561 33.0857C82.6914 32.0714 83.2566 30.7714 83.2566 29.2143C83.2566 27.4857 82.5642 26.0857 81.1936 25.0286C79.8088 23.9571 77.9436 23.4143 75.6544 23.4143H70.1577C70.2849 23.4571 70.3838 23.5 70.4544 23.5714C70.6664 23.7714 70.7653 24.1857 70.7653 24.9143V40.9571C70.7653 41.6714 70.6664 42.1 70.4544 42.3C70.3979 42.3571 70.3273 42.4 70.2283 42.4286H73.337C73.2099 42.3857 73.0968 42.3286 73.0262 42.2714C72.8001 42.0714 72.7012 41.6571 72.7012 40.9428V25.1286C72.7012 24.5428 72.5599 24.1143 72.2773 23.8571L72.2207 23.8V23.5428L72.3903 23.5143H75.4283C77.2512 23.5143 78.6783 24 79.6392 24.9714C80.6142 25.9428 81.0946 27.3571 81.0946 29.2C81.0946 31.0428 80.6001 32.4571 79.6251 33.4286C78.6501 34.4143 77.237 34.9 75.4142 34.9H74.2555V35H74.2979Z" fill="#045569"/>
<path d="M97.3731 42.8143C95.2112 42.8143 93.3036 42.4 91.6644 41.5857C90.0253 40.7714 88.7536 39.6 87.8492 38.1C86.9449 36.6 86.5068 34.8714 86.5068 32.9C86.5068 29.9286 87.5101 27.5429 89.5025 25.7286C91.4949 23.9143 94.1231 23 97.3873 23C99.5351 23 101.429 23.4143 103.068 24.2286C104.707 25.0429 105.979 26.2143 106.883 27.7143C107.787 29.2143 108.225 30.9429 108.225 32.9C108.225 34.8714 107.773 36.6 106.883 38.1C105.979 39.6 104.721 40.7571 103.068 41.5857C101.414 42.4 99.521 42.8143 97.3731 42.8143ZM97.4862 42.3286C100.143 42.3286 102.163 41.5714 103.562 40.0429C104.961 38.5143 105.654 36.3 105.654 33.4C105.654 30.1857 104.933 27.7143 103.506 26.0143C102.079 24.3143 100.001 23.4714 97.2742 23.4714C94.6036 23.4714 92.5688 24.2286 91.1699 25.7571C89.7568 27.2857 89.0644 29.5 89.0644 32.4C89.0644 35.6286 89.7851 38.0857 91.2264 39.7857C92.6677 41.4857 94.7307 42.3286 97.4862 42.3286Z" fill="#77C6C4"/>
<path d="M97.3732 42.9858C95.1972 42.9858 93.2472 42.5715 91.5798 41.7429C89.9124 40.9143 88.5982 39.7143 87.6939 38.1858C86.7754 36.6572 86.3232 34.8858 86.3232 32.8858C86.3232 29.8858 87.3548 27.4143 89.3754 25.5715C91.3961 23.7286 94.0809 22.8 97.3732 22.8C99.5352 22.8 101.471 23.2143 103.124 24.0572C104.792 24.8858 106.092 26.0858 107.01 27.6C107.929 29.1286 108.381 30.9001 108.381 32.8858C108.381 34.8715 107.915 36.6572 107.01 38.1858C106.092 39.7143 104.792 40.9 103.124 41.7286C101.471 42.5715 99.5352 42.9858 97.3732 42.9858ZM97.3732 23.1715C94.1656 23.1715 91.5515 24.0715 89.6015 25.8572C87.6515 27.6286 86.6765 30.0001 86.6765 32.9001C86.6765 34.8286 87.1145 36.5429 88.0048 38.0143C88.8808 39.4858 90.1385 40.6286 91.7493 41.4286C93.3602 42.2286 95.2537 42.6429 97.3874 42.6429C99.4928 42.6429 101.386 42.2286 102.983 41.4286C104.58 40.6286 105.837 39.4715 106.713 38.0143C107.59 36.5429 108.042 34.8286 108.042 32.9001C108.042 30.9858 107.604 29.2715 106.713 27.8C105.837 26.3286 104.58 25.1858 102.983 24.3858C101.372 23.5715 99.4787 23.1715 97.3732 23.1715ZM97.4863 42.5143C94.7026 42.5143 92.5406 41.6429 91.0852 39.9001C89.6298 38.1715 88.8809 35.6572 88.8809 32.4001C88.8809 29.4715 89.6015 27.2001 91.0428 25.6429C92.4841 24.0858 94.5754 23.3 97.2743 23.3C100.03 23.3 102.178 24.1715 103.633 25.9143C105.088 27.6429 105.823 30.1572 105.823 33.4143C105.823 36.3429 105.103 38.6143 103.69 40.1715C102.262 41.7286 100.185 42.5143 97.4863 42.5143ZM97.2743 23.6572C94.6743 23.6572 92.6537 24.4143 91.2972 25.8858C89.9265 27.3715 89.2341 29.5572 89.2341 32.4001C89.2341 35.5572 89.9406 38.0143 91.3537 39.6715C92.7526 41.3143 94.8156 42.1572 97.4863 42.1572C100.086 42.1572 102.079 41.4001 103.435 39.9286C104.792 38.4429 105.484 36.2572 105.484 33.4143C105.484 30.2572 104.778 27.8143 103.379 26.1572C101.98 24.5 99.9167 23.6572 97.2743 23.6572Z" fill="#045569"/>
<path d="M120.787 42.6V42.3571H121.805C122.511 42.3571 122.963 42.2857 123.133 42.1285C123.302 41.9714 123.387 41.5714 123.387 40.9285V29.2C123.387 28.5571 123.302 28.1571 123.133 28.0143C122.963 27.8571 122.525 27.7857 121.805 27.7857H121.381V27.5285H132.219C132.572 27.5285 132.826 27.6143 132.982 27.7857V27.6143C132.953 26.9143 132.784 26.3 132.487 25.7857C132.19 25.2714 131.809 24.8571 131.314 24.5714C130.82 24.2714 130.283 24.0571 129.675 23.9143C129.068 23.7714 128.403 23.7 127.669 23.7H113.863V23.7285C114.287 24.1285 114.499 24.6 114.499 25.1428V33.1714H115.375C115.771 33.1714 116.11 33.1571 116.407 33.1285C116.703 33.1 117.028 33.0285 117.368 32.9143C117.721 32.8 118.003 32.6428 118.23 32.4428C118.456 32.2428 118.653 31.9714 118.809 31.6C118.964 31.2428 119.035 30.8143 119.035 30.3143V28.7H119.289V37.6285H119.035V36.5285C119.035 35.6 118.724 34.8857 118.102 34.4C117.481 33.9143 116.576 33.6714 115.375 33.6714H114.499V40.9571C114.499 41.6 114.584 42 114.768 42.1571C114.951 42.3143 115.389 42.4 116.096 42.4H117.989V42.6428H109.652V42.4H110.67C111.376 42.4 111.828 42.3285 111.998 42.1714C112.168 42.0143 112.252 41.6143 112.252 40.9714V24.8714C112.252 24.2285 112.168 23.8285 111.998 23.6857C111.828 23.5285 111.39 23.4571 110.67 23.4571H109.652V23.2143H132.106C132.332 23.2143 132.487 23.2285 132.6 23.2714C132.699 23.3 132.812 23.3714 132.925 23.4714H132.953L132.826 21.6285L133.081 21.6L133.943 33.8H133.406L133.264 31.9143C133.236 31.2143 133.066 30.6 132.77 30.0857C132.473 29.5714 132.091 29.1571 131.597 28.8571C131.102 28.5571 130.565 28.3428 129.958 28.2C129.364 28.0571 128.686 28 127.951 28H124.998V28.0285C125.422 28.4285 125.634 28.9 125.634 29.4428V35.0571H126.51C126.891 35.0571 127.231 35.0428 127.527 35.0143C127.824 34.9857 128.149 34.9143 128.502 34.8C128.856 34.6857 129.138 34.5285 129.364 34.3285C129.59 34.1285 129.788 33.8428 129.944 33.4857C130.099 33.1285 130.17 32.7 130.17 32.2V31.1285H130.424V38.9714H130.17V38.4C130.17 37.4714 129.859 36.7571 129.237 36.2714C128.615 35.7857 127.711 35.5285 126.51 35.5285H125.634V40.9285C125.634 41.5714 125.719 41.9714 125.902 42.1285C126.086 42.2857 126.524 42.3714 127.231 42.3714H129.124V42.6143H120.787V42.6Z" fill="#77C6C4"/>
<path d="M129.321 42.7715H120.617V42.1714H121.804C122.708 42.1714 122.949 42.0429 123.005 41.9857C123.062 41.9286 123.203 41.7143 123.203 40.9143V29.1857C123.203 28.3857 123.062 28.1857 123.005 28.1286C122.949 28.0715 122.708 27.9429 121.804 27.9429H121.196V27.3286H132.204C132.43 27.3286 132.628 27.3572 132.783 27.4286C132.741 26.8286 132.586 26.3 132.331 25.8429C132.063 25.3572 131.681 24.9715 131.229 24.6857C130.763 24.4 130.226 24.1857 129.632 24.0572C129.039 23.9143 128.375 23.8572 127.654 23.8572H114.23C114.513 24.2286 114.668 24.6429 114.668 25.1143V32.9714H115.361C115.756 32.9714 116.081 32.9572 116.364 32.9286C116.646 32.9 116.957 32.8286 117.296 32.7143C117.621 32.6 117.89 32.4572 118.102 32.2857C118.314 32.1143 118.483 31.8429 118.625 31.5143C118.766 31.1857 118.837 30.7714 118.837 30.3V28.5H119.444V37.7857H118.837V36.5C118.837 35.6143 118.554 34.9714 117.975 34.5143C117.381 34.0572 116.505 33.8143 115.361 33.8143H114.668V40.9143C114.668 41.6857 114.795 41.9143 114.88 41.9714C114.965 42.0429 115.233 42.1714 116.095 42.1714H118.158V42.7715H109.454V42.1714H110.641C111.545 42.1714 111.786 42.0429 111.842 41.9857C111.899 41.9286 112.04 41.7143 112.04 40.9143V24.8714C112.04 24.0714 111.899 23.8714 111.842 23.8143C111.786 23.7572 111.545 23.6286 110.641 23.6286H109.454V23.0286H132.091C132.345 23.0286 132.515 23.0429 132.642 23.0857C132.67 23.1 132.699 23.1143 132.741 23.1286L132.642 21.4714L133.25 21.4143L133.264 21.6L134.14 34H133.25L133.094 31.9572C133.066 31.2857 132.911 30.6857 132.628 30.2C132.36 29.7143 131.978 29.3286 131.512 29.0429C131.045 28.7572 130.508 28.5429 129.929 28.4143C129.35 28.2857 128.686 28.2143 127.965 28.2143H125.393C125.676 28.5857 125.831 29 125.831 29.4714V34.9H126.524C126.905 34.9 127.23 34.8857 127.527 34.8572C127.81 34.8286 128.12 34.7572 128.46 34.6429C128.785 34.5429 129.053 34.3857 129.265 34.2C129.477 34.0143 129.646 33.7572 129.788 33.4286C129.929 33.1 130 32.6857 130 32.2143V30.9714H130.607V39.1714H130V38.4286C130 37.5429 129.717 36.9 129.138 36.4286C128.544 35.9714 127.668 35.7286 126.524 35.7286H125.831V40.9429C125.831 41.7143 125.958 41.9429 126.043 42C126.128 42.0714 126.396 42.2 127.258 42.2H129.321V42.7715ZM122.949 42.4143H126.114C125.987 42.3714 125.874 42.3143 125.803 42.2572C125.577 42.0572 125.478 41.6429 125.478 40.9286V35.3572H126.524C127.753 35.3572 128.714 35.6143 129.364 36.1286C129.83 36.5 130.127 36.9714 130.268 37.5714V33.0857C130.226 33.2572 130.183 33.4143 130.113 33.5572C129.957 33.9429 129.745 34.2429 129.491 34.4714C129.237 34.6857 128.926 34.8572 128.558 34.9857C128.205 35.1 127.866 35.1857 127.555 35.2143C127.244 35.2429 126.905 35.2572 126.51 35.2572H125.478V29.4714C125.478 28.9714 125.294 28.5572 124.899 28.2L124.842 28.1429V27.8572L125.012 27.8286H127.965C128.714 27.8286 129.406 27.9 130.014 28.0429C130.622 28.1857 131.201 28.4143 131.695 28.7143C132.204 29.0286 132.628 29.4572 132.925 30C133.221 30.5429 133.405 31.1857 133.433 31.9143L133.561 33.6286H133.744L133.038 23.6429H132.854L132.783 23.6C132.685 23.5143 132.6 23.4572 132.515 23.4286C132.458 23.4143 132.345 23.3857 132.091 23.3857H111.771C111.955 23.4429 112.054 23.5 112.111 23.5572C112.323 23.7429 112.421 24.1714 112.421 24.8857V40.9429C112.421 41.6572 112.323 42.0857 112.111 42.2857C112.04 42.3429 111.941 42.4 111.814 42.4429H114.979C114.852 42.4 114.739 42.3429 114.668 42.2857C114.442 42.0857 114.343 41.6714 114.343 40.9572V33.5H115.389C116.618 33.5 117.565 33.7572 118.215 34.2714C118.681 34.6286 118.992 35.1143 119.133 35.7143V31.2286C119.091 31.4 119.049 31.5572 118.978 31.7C118.808 32.0857 118.611 32.3857 118.356 32.6C118.116 32.8143 117.805 32.9857 117.424 33.1C117.07 33.2143 116.731 33.3 116.42 33.3286C116.124 33.3572 115.785 33.3715 115.375 33.3715H114.329V25.1572C114.329 24.6572 114.145 24.2429 113.75 23.8857L113.693 23.8286V23.5714L113.863 23.5429H127.668C128.417 23.5429 129.11 23.6143 129.717 23.7572C130.339 23.9 130.904 24.1286 131.413 24.4286C131.921 24.7429 132.345 25.1714 132.642 25.7143C132.939 26.2572 133.123 26.9 133.151 27.6286V28.2429L132.854 27.9429C132.727 27.8143 132.501 27.7429 132.204 27.7429H122.892C123.048 27.7857 123.161 27.8429 123.231 27.9143C123.443 28.1143 123.542 28.5286 123.542 29.2429V40.9714C123.542 41.6857 123.443 42.1143 123.231 42.3143C123.175 42.3286 123.076 42.3714 122.949 42.4143Z" fill="#045569"/>
<path d="M135.355 42.5999V42.3571H136.373C137.079 42.3571 137.532 42.2857 137.701 42.1285C137.871 41.9857 137.955 41.5857 137.955 40.9428V24.8428C137.955 24.1999 137.871 23.8142 137.701 23.6714C137.532 23.5285 137.094 23.4571 136.373 23.4571H135.355V23.2142H142.816V23.5142H141.813C141.092 23.5142 140.64 23.5857 140.471 23.7428C140.301 23.8857 140.216 24.2857 140.216 24.9285V40.9714C140.216 41.6142 140.301 42.0142 140.471 42.1571C140.64 42.2999 141.092 42.3857 141.813 42.3857H142.816V42.6285H135.355V42.5999Z" fill="#77C6C4"/>
<path d="M143 42.7714H135.186V42.1714H136.373C137.277 42.1714 137.517 42.0428 137.574 41.9857C137.63 41.9286 137.771 41.7286 137.771 40.9286V24.8428C137.771 24.0428 137.644 23.8571 137.574 23.8C137.517 23.7428 137.277 23.6286 136.373 23.6286H135.186V23.0286H143V23.6857H141.827C140.908 23.6857 140.668 23.8143 140.598 23.8714C140.541 23.9286 140.4 24.1286 140.4 24.9143V40.9571C140.4 41.7571 140.541 41.9571 140.598 42C140.654 42.0571 140.908 42.1857 141.827 42.1857H143V42.7714ZM137.531 42.4143H140.654C140.513 42.3714 140.428 42.3143 140.371 42.2714C140.145 42.0857 140.046 41.6571 140.046 40.9571V24.9143C140.046 24.2 140.145 23.7857 140.371 23.6C140.456 23.5286 140.598 23.4429 140.951 23.3857H137.489C137.658 23.4286 137.743 23.4857 137.8 23.5428C138.012 23.7286 138.111 24.1428 138.111 24.8571V40.9571C138.111 41.6714 138.012 42.0857 137.8 42.2714C137.757 42.3143 137.673 42.3714 137.531 42.4143Z" fill="#045569"/>
<path d="M0.169922 0.171387H20.4612V0.72853H16.9851C15.0493 0.72853 13.8623 0.899958 13.4243 1.22853C13.0004 1.57139 12.7743 2.4571 12.7743 3.91424V35.7857C12.7743 38.1 13.5938 39.8571 15.233 41.0714C16.8721 42.2857 19.2743 42.9 22.4395 42.9C26.6927 42.9 29.9286 42.1 32.1754 40.5142C34.4221 38.9285 35.5384 36.6285 35.5384 33.6V4.99996C35.5384 3.47139 35.2417 2.38567 34.6341 1.72853C34.0264 1.07139 32.8395 0.742815 31.0449 0.742815H28.0775V0.171387H43.621V0.72853H41.5721C39.7351 0.72853 38.5058 1.0571 37.9123 1.69996C37.3047 2.34282 37.008 3.44282 37.008 4.98567V33.5857C37.008 36.9571 35.7645 39.5285 33.2917 41.2857C30.8188 43.0428 27.2014 43.9285 22.4536 43.9285C17.7058 43.9285 13.8764 42.9714 10.9514 41.0714C8.02644 39.1714 6.55688 36.6714 6.55688 33.5714V3.91424C6.55688 2.48567 6.31666 1.59996 5.83623 1.2571C5.35579 0.914244 4.14057 0.742815 2.2047 0.742815H0.169922V0.171387Z" fill="#77C6C4"/>
<path d="M22.4533 44.1286C17.6913 44.1286 13.7913 43.1571 10.8522 41.2429C7.88478 39.3143 6.38696 36.7429 6.38696 33.6V3.91429C6.38696 2.55714 6.175 1.7 5.73696 1.4C5.42609 1.18571 4.56413 0.914286 2.20435 0.914286H0V0H20.6446V0.914286H16.9989C14.6533 0.914286 13.8196 1.17143 13.5511 1.37143C13.2826 1.58571 12.9576 2.18571 12.9576 3.91429V35.7857C12.9576 38.0286 13.763 39.7571 15.3457 40.9286C16.9424 42.1143 19.3304 42.7143 22.4533 42.7143C26.65 42.7143 29.8859 41.9286 32.0902 40.3714C34.2663 38.8286 35.3826 36.5571 35.3826 33.6143V5C35.3826 3.52857 35.1 2.45714 34.5207 1.84286C33.9554 1.22857 32.7967 0.914286 31.0587 0.914286H27.9076V0H43.8044V0.914286H41.5717C39.7913 0.914286 38.6044 1.22857 38.0391 1.82857C37.4739 2.44286 37.1913 3.5 37.1913 5V33.6C37.1913 37.0143 35.9196 39.6571 33.4044 41.4429C30.8891 43.2286 27.2011 44.1286 22.4533 44.1286ZM0.353261 0.557143H2.19022C4.18261 0.557143 5.39783 0.728571 5.92065 1.1C6.45761 1.48571 6.72609 2.4 6.72609 3.91429V33.6143C6.72609 36.6286 8.18152 39.1 11.0359 40.9571C13.9185 42.8286 17.762 43.7857 22.4533 43.7857C27.1446 43.7857 30.7478 42.9 33.1924 41.1714C35.6087 39.4571 36.838 36.9143 36.838 33.6143V5C36.838 3.41429 37.163 2.25714 37.7848 1.58571C38.4207 0.9 39.6641 0.557143 41.5717 0.557143H43.4511V0.357143H28.2467V0.557143H31.0446C32.9098 0.557143 34.125 0.9 34.7609 1.6C35.3967 2.28571 35.7076 3.42857 35.7076 5V33.6C35.7076 36.6714 34.5489 39.0429 32.2739 40.6571C30.013 42.2571 26.7065 43.0714 22.4391 43.0714C19.2457 43.0714 16.787 42.4429 15.1337 41.2143C13.4522 39.9714 12.6043 38.1429 12.6043 35.7714V3.91429C12.6043 2.38571 12.8446 1.47143 13.325 1.1C13.7913 0.742857 14.9924 0.557143 16.9848 0.557143H20.2772V0.357143H0.353261V0.557143Z" fill="#045569"/>
<path d="M38.0244 43.3999V42.8714H40.2853C41.8679 42.8714 42.8429 42.6999 43.2244 42.3571C43.6059 42.0142 43.7896 41.1285 43.7896 39.6714V3.95708C43.7896 2.52851 43.6059 1.6428 43.2244 1.29994C42.8429 0.957084 41.8679 0.785655 40.2853 0.785655H38.0244V0.242798H54.4581C59.3896 0.242798 63.3462 1.45708 66.3559 3.87137C69.3657 6.28566 70.8635 9.48566 70.8635 13.4571C70.8635 17.3857 69.3657 20.5571 66.3559 22.9857C63.3462 25.4142 59.3896 26.6142 54.4581 26.6142H48.8342V39.6857C48.8342 41.1142 49.032 41.9999 49.4277 42.3571C49.8233 42.7142 50.8125 42.8857 52.3951 42.8857H53.9918V43.4142H38.0244V43.3999ZM47.7603 1.38566V1.71423C48.4809 2.59994 48.8342 3.82851 48.8342 5.42851V25.5285H52.5081C56.6201 25.5285 59.757 24.4999 61.9049 22.4428C64.0527 20.3857 65.1407 17.3857 65.1407 13.4571C65.1407 9.52851 64.0668 6.5428 61.9049 4.47137C59.7429 2.39994 56.6201 1.38566 52.5081 1.38566H47.7603Z" fill="#77C6C4"/>
<path d="M54.1615 43.5714H37.8408V42.6857H40.2713C42.1789 42.6857 42.8571 42.4286 43.0973 42.2143C43.3234 42 43.606 41.3857 43.606 39.6714V3.95713C43.606 2.25713 43.3376 1.64284 43.0973 1.44284C42.8571 1.22855 42.1789 0.971411 40.2713 0.971411H37.8408V0.0714111H54.4441C59.3897 0.0714111 63.431 1.29998 66.4549 3.74284C69.493 6.1857 71.0332 9.45713 71.0332 13.4571C71.0332 17.4286 69.493 20.6714 66.4549 23.1143C63.431 25.5571 59.3897 26.7857 54.4441 26.7857H49.0039V39.6714C49.0039 41.3714 49.3006 41.9857 49.5408 42.2C49.7952 42.4143 50.4876 42.6857 52.3952 42.6857H54.1615V43.5714ZM38.1941 43.2143H53.8082V43.0428H52.3952C50.756 43.0428 49.7386 42.8571 49.3147 42.4714C48.8767 42.0857 48.6647 41.1714 48.6647 39.6714V26.4286H54.4582C59.3191 26.4286 63.2897 25.2143 66.243 22.8286C69.1821 20.4571 70.68 17.3 70.68 13.4428C70.68 9.55713 69.1821 6.37141 66.243 3.99998C63.2897 1.61427 59.3191 0.399983 54.4582 0.399983H38.2082V0.599983H40.2854C41.9245 0.599983 42.9278 0.785697 43.3517 1.15713C43.7756 1.54284 43.9734 2.44284 43.9734 3.94284V39.6571C43.9734 41.1714 43.7756 42.0857 43.3517 42.4714C42.9419 42.8428 41.9386 43.0286 40.2854 43.0286H38.2082V43.2143H38.1941ZM52.5082 25.7H48.6506V5.42855C48.6506 3.87141 48.2973 2.65713 47.6191 1.82855L47.5767 1.7857V1.21427H52.5082C56.6484 1.21427 59.856 2.27141 62.0321 4.35713C64.2082 6.44284 65.3245 9.51427 65.3245 13.4714C65.3245 17.4286 64.2223 20.5 62.0321 22.5857C59.856 24.6571 56.6484 25.7 52.5082 25.7ZM49.0039 25.3428H52.5082C56.5636 25.3428 59.6865 24.3143 61.7919 22.3C63.8973 20.2857 64.9713 17.3 64.9713 13.4571C64.9713 9.61427 63.8973 6.62855 61.7919 4.61427C59.6865 2.59998 56.5636 1.57141 52.5082 1.57141H47.9299V1.65713C48.6365 2.55713 49.0039 3.82855 49.0039 5.44284V25.3428Z" fill="#045569"/>
<path d="M16.5188 8.45715C16.5188 8.45715 15.1906 14.3 19.7547 16.1C19.7547 16.1 16.3917 18.9 18.5395 22.5714C18.5395 22.5714 11.1493 24.0714 11.4319 44.5143C11.4319 44.5143 12.0112 43.7857 12.7884 43.8572C12.7884 43.8572 10.358 48.5572 10.8525 50.9143C10.8525 50.9143 11.5591 47.2857 19.5851 44.0143C19.5851 44.0143 33.0514 39.2286 29.1797 25.9857C29.1797 25.9857 33.0514 26.1714 33.2351 19.9572C33.2351 19.9572 32.896 13.5572 24.1775 12.6286C24.1917 12.6286 18.3699 10.7 16.5188 8.45715Z" fill="#FEFBEB"/>
<path d="M32.4995 24C33.093 21.7715 33.0789 19.3715 32.1321 17.4572C31.1854 15.5286 29.3626 14.2715 27.3702 13.5286C26.3387 13.1143 25.3213 12.8572 24.1908 12.6286C22.9898 12.3429 21.8593 11.9286 20.7571 11.4143C18.5669 10.4 16.4615 8.80003 15.2039 6.48574L17.055 6.31431C16.8006 7.11431 16.5745 8.04289 16.4756 8.9286C16.3626 9.8286 16.3484 10.7286 16.4615 11.5857C16.5604 12.4572 16.8148 13.2715 17.2669 13.9857C17.705 14.7 18.3408 15.2857 19.1039 15.7143L19.7821 16.0857L19.2876 16.6143C18.9484 16.9857 18.6093 17.4715 18.3691 17.9715C18.1148 18.4715 17.9452 19.0143 17.8887 19.5715C17.818 20.1286 17.8745 20.7143 18.0441 21.2715C18.2278 21.8286 18.4963 22.3715 18.8637 22.8572C18.4115 22.4429 18.0158 21.9715 17.7191 21.4143C17.4365 20.8572 17.2528 20.2143 17.2245 19.5572C17.1963 18.9 17.3093 18.2429 17.5213 17.6286C17.7332 17 18.0017 16.4286 18.4398 15.8572L18.6235 16.7572C17.6626 16.3572 16.73 15.7286 16.0658 14.8429C15.4017 13.9572 14.9778 12.9286 14.7658 11.8715C14.5398 10.8286 14.5256 9.75717 14.5963 8.7286C14.6811 7.68574 14.8224 6.70003 15.1474 5.64289L15.8256 3.38574L16.9843 5.47146C17.9735 7.24289 19.7539 8.5286 21.6615 9.50003C22.6082 10 23.6398 10.3857 24.6571 10.6715C25.7593 10.9572 26.9604 11.3143 28.0626 11.8143C29.1789 12.3143 30.2387 12.9857 31.1571 13.8572C32.0756 14.7143 32.8104 15.8 33.2202 16.9857C34.0398 19.3857 33.5876 21.9572 32.4995 24Z" fill="#045569"/>
<path d="M23.0048 27.9999C24.0787 29.3999 24.4885 31.3571 24.0363 33.1428C23.6265 34.9428 22.5667 36.5285 21.3657 37.8714C20.1081 39.1714 18.695 40.3142 17.1972 41.2999C16.4341 41.7571 15.6994 42.2999 14.9081 42.6999L12.5483 43.9428L11.4461 44.5142L11.4037 43.2142C11.3331 40.9714 11.432 38.7714 11.6722 36.5571C11.9124 34.3428 12.2939 32.1285 12.9722 29.9714C13.6787 27.8285 14.6254 25.6285 16.4059 23.8999C17.282 23.0285 18.4548 22.3857 19.5994 22.0571C20.7298 21.7142 21.9167 21.5428 23.1461 21.5999C24.3613 21.6428 25.6331 21.9999 26.707 22.7285L27.1167 22.9857C27.2439 23.0857 27.357 23.1999 27.47 23.3142C27.6961 23.5428 27.9504 23.7428 28.1483 23.9857C28.5015 24.4999 28.9396 24.9857 29.1657 25.5428L29.5613 26.3714C29.6744 26.6428 29.745 26.9428 29.8298 27.2142L30.0841 28.0714C30.1548 28.3571 30.1831 28.6428 30.2396 28.9285L30.3809 29.7857C30.4374 30.0428 30.4657 30.4285 30.4515 30.6999C30.4515 31.2857 30.4091 31.8714 30.3526 32.4428C30.0841 34.7285 29.3494 36.9999 28.0494 38.9142L27.5548 39.6285C27.3711 39.8571 27.1733 40.0714 26.9896 40.2857C26.6222 40.7428 26.17 41.0999 25.7461 41.4999C25.3222 41.8857 24.8135 42.1714 24.3472 42.4999C23.8526 42.7857 23.3439 43.0285 22.8494 43.2999L22.8211 43.3142L22.7928 43.3285C21.7189 43.6999 20.6591 44.1428 19.5994 44.5857C18.5396 45.0428 17.4939 45.5285 16.4765 46.0571C15.4591 46.5857 14.47 47.1714 13.5233 47.8428C12.6048 48.5142 11.6863 49.2571 11.1211 50.2999C11.5591 49.1999 12.3928 48.2999 13.2689 47.5285C14.1591 46.7571 15.1059 46.0571 16.1091 45.4285C18.1015 44.1714 20.1787 43.0999 22.3407 42.1571L22.2841 42.1857C24.107 41.2142 25.6331 39.7857 26.6928 38.0571C27.2157 37.1857 27.6396 36.2571 27.9222 35.2714C28.2189 34.2999 28.4167 33.2857 28.5015 32.2571C28.5439 31.7428 28.5722 31.2285 28.5439 30.7285C28.5439 30.4571 28.5298 30.2999 28.4591 30.0285L28.3178 29.2857C28.2613 29.0428 28.2331 28.7857 28.1624 28.5428L27.9222 27.8285C27.8374 27.5999 27.7809 27.3428 27.682 27.1285L27.357 26.4857C27.1733 26.0285 26.8483 25.6999 26.5939 25.3142C26.4526 25.1428 26.2689 25.0142 26.1135 24.8571L25.8733 24.6285L25.5907 24.4571C24.8559 23.9714 23.9798 23.7142 23.0472 23.6857C22.1146 23.6571 21.1396 23.7999 20.207 24.0857C19.2744 24.3571 18.4972 24.7857 17.8189 25.4285C16.4483 26.7285 15.5439 28.6285 14.8939 30.5999C13.5939 34.5714 13.1417 38.9428 13.0146 43.1857L11.8841 42.4571L14.2298 41.3571C14.6254 41.1857 15.007 40.9714 15.3744 40.7571L16.5048 40.1285C17.282 39.7428 17.9461 39.2142 18.6667 38.7428C19.0341 38.5142 19.3591 38.2285 19.6841 37.9571C20.0091 37.6857 20.3483 37.4142 20.6591 37.1285C21.8885 35.9571 22.9483 34.5857 23.4994 32.9714C23.6689 32.5714 23.6831 32.1428 23.782 31.7285C23.8102 31.5142 23.7961 31.2999 23.8102 31.0857C23.8244 30.8714 23.8102 30.6571 23.782 30.4428C23.7113 29.6142 23.457 28.7571 23.0048 27.9999Z" fill="#045569"/>
<path d="M12.9014 31.8857C13.3959 31.4857 13.8622 31.1857 14.3709 30.9C14.8796 30.6285 15.4025 30.3857 15.9394 30.2C16.4764 30 17.0275 29.8714 17.5785 29.8C18.1296 29.7142 18.6948 29.7285 19.2318 29.7714C18.6948 29.8428 18.1579 29.9571 17.6492 30.1428C17.1405 30.3285 16.6601 30.5571 16.222 30.8428C15.7698 31.1142 15.3459 31.4285 14.9503 31.7714C14.5688 32.1142 14.1731 32.5 13.8905 32.8714L12.9014 31.8857Z" fill="#045569"/>
<path d="M12.5479 38.1143C12.5479 38.1143 14.8794 34.2572 18.4544 33.8857L12.5479 38.1143Z" fill="#045569"/>
<path d="M22.1425 13.4286C22.5523 14.8429 23.4001 15.7572 24.3751 16.3143C24.8556 16.6143 25.4349 16.7857 25.986 16.9714L26.8762 17.1857C27.1871 17.2286 27.4838 17.2857 27.7947 17.3429L27.8653 17.3572C28.5436 17.5143 29.0947 17.7286 29.674 18C30.2393 18.2714 30.7903 18.6143 31.2849 19.0429C31.7795 19.4714 32.2317 19.9714 32.5284 20.5572C32.8251 21.1572 32.9664 21.8143 32.8817 22.4286C32.5567 21.9 32.1893 21.4857 31.7795 21.1572C31.3556 20.8286 30.9034 20.5857 30.423 20.3714C29.9567 20.1572 29.448 19.9714 28.9534 19.8143C28.4588 19.6572 27.9077 19.5143 27.4556 19.4286L27.5262 19.4429C27.1588 19.3857 26.7914 19.3286 26.424 19.2572C26.0567 19.1714 25.6893 19.0572 25.3219 18.9286C24.6012 18.6286 23.8947 18.2714 23.3012 17.7C22.7077 17.1572 22.2414 16.4429 22.0295 15.6714C21.8458 14.9143 21.8458 14.1143 22.1425 13.4286Z" fill="#045569"/>
<path d="M27.7384 20.9858C28.4875 20.9858 29.0949 20.3718 29.0949 19.6143C29.0949 18.8569 28.4875 18.2429 27.7384 18.2429C26.9892 18.2429 26.3818 18.8569 26.3818 19.6143C26.3818 20.3718 26.9892 20.9858 27.7384 20.9858Z" fill="#045569"/>
<path d="M14.9784 41.5286C14.3708 43.2571 13.6501 44.8 12.9718 46.3714L11.9403 48.7143C11.5729 49.5 11.2621 50.3 10.824 51.1286C10.5555 49.3 10.9653 47.4428 11.686 45.7857C12.0534 44.9571 12.5055 44.1714 13.0425 43.4429C13.5936 42.7286 14.2012 42.0429 14.9784 41.5286Z" fill="#045569"/>
<path d="M7.03651 58.7143H5.82129V52.3857H8.66151C9.31151 52.3857 9.83433 52.5857 10.2441 52.9857C10.6539 53.3857 10.8659 53.8857 10.8659 54.4857C10.8659 55.0715 10.668 55.5715 10.2582 55.9857C9.86259 56.4 9.32564 56.6 8.66151 56.6H7.03651V58.7143ZM7.03651 53.4V55.5857H8.49194C8.87346 55.5857 9.1702 55.4857 9.36803 55.2857C9.56585 55.0857 9.6789 54.8143 9.6789 54.5C9.6789 54.1715 9.57999 53.9 9.36803 53.7C9.15607 53.5 8.87346 53.4 8.50607 53.4H7.03651Z" fill="#045569"/>
<path d="M10.6113 58.7143L13.4939 52.3857H14.7657L17.6483 58.7143H16.3624L15.7689 57.4143H12.4907L11.8972 58.7143H10.6113ZM12.9428 56.4H15.3309L14.1298 53.7857L12.9428 56.4Z" fill="#045569"/>
<path d="M18.5391 58.7143V52.3857H23.3575V53.4H19.7684V54.9715H21.5206C21.8456 54.9715 22.1282 55 22.3825 55.0429C22.6369 55.1 22.8771 55.1857 23.1032 55.3C23.3293 55.4286 23.513 55.6143 23.626 55.8572C23.7532 56.1143 23.8097 56.4143 23.8097 56.7715C23.8097 57.3429 23.6119 57.8143 23.2445 58.1715C22.8771 58.5286 22.3119 58.7 21.5771 58.7H18.5391V58.7143ZM21.5347 55.9857H19.7684V57.7H21.5771C22.2554 57.7 22.5804 57.4 22.5804 56.7857C22.5804 56.2572 22.2412 55.9857 21.5347 55.9857Z" fill="#045569"/>
<path d="M24.6709 55.5286C24.6709 54.6143 24.9959 53.8429 25.6459 53.2286C26.2959 52.6143 27.0872 52.3 28.0198 52.3C28.9524 52.3 29.7437 52.6143 30.3937 53.2286C31.0437 53.8572 31.3687 54.6143 31.3687 55.5286C31.3687 56.4429 31.0437 57.2143 30.3937 57.8572C29.7437 58.5 28.9524 58.8143 28.0198 58.8143C27.0872 58.8143 26.2959 58.5 25.6459 57.8572C24.9959 57.2143 24.6709 56.4429 24.6709 55.5286ZM26.5079 53.9858C26.0981 54.4143 25.8861 54.9286 25.8861 55.5286C25.8861 56.1286 26.0981 56.6572 26.5079 57.0858C26.9176 57.5286 27.4263 57.7429 28.0057 57.7429C28.585 57.7429 29.0937 57.5286 29.5035 57.0858C29.9133 56.6429 30.1252 56.1286 30.1252 55.5286C30.1252 54.9286 29.9133 54.4143 29.5035 53.9858C29.0937 53.5572 28.585 53.3429 28.0057 53.3429C27.4263 53.3572 26.9318 53.5715 26.5079 53.9858Z" fill="#045569"/>
<path d="M31.6797 53.4V52.3857H36.8938V53.4H34.9014V58.7143H33.6862V53.4H31.6797Z" fill="#045569"/>
<path d="M36.2441 58.7143L39.1268 52.3857H40.3985L43.2811 58.7143H41.9952L41.4017 57.4143H38.1235L37.53 58.7143H36.2441ZM38.5757 56.4H40.9637L39.7626 53.7857L38.5757 56.4Z" fill="#045569"/>
<path d="M44.2139 58.7143V52.3857H45.4432V56.8428L48.6367 52.3857H49.9084V58.7143H48.6791L48.6932 54.3L45.528 58.7143H44.2139ZM45.7117 50.5428H46.291C46.291 50.7143 46.3617 50.8571 46.503 50.9571C46.6443 51.0714 46.8139 51.1143 46.9976 51.1143C47.1813 51.1143 47.3508 51.0571 47.4921 50.9571C47.6334 50.8428 47.7041 50.7143 47.7041 50.5428H48.2976C48.2976 50.9286 48.1845 51.2286 47.9443 51.4571C47.7041 51.6857 47.3932 51.8 47.0117 51.8C46.6302 51.8 46.3193 51.6857 46.0791 51.4571C45.8247 51.2286 45.7117 50.9286 45.7117 50.5428Z" fill="#045569"/>
<path d="M53.709 58.7143V52.3857H56.9025C57.6514 52.3857 58.2025 52.5429 58.584 52.8572C58.9514 53.1715 59.1492 53.5572 59.1492 54.0286C59.1492 54.3286 59.0786 54.6 58.9231 54.8429C58.7677 55.0857 58.5699 55.2715 58.3014 55.4C58.6264 55.5 58.8949 55.6715 59.0927 55.9286C59.2905 56.1857 59.3894 56.5 59.3894 56.8715C59.3894 57.4286 59.1916 57.8715 58.7959 58.2143C58.4003 58.5572 57.8351 58.7286 57.1003 58.7286H53.709V58.7143ZM56.8459 53.4H54.9242V55.0143H56.8459C57.5666 55.0143 57.9199 54.7429 57.9199 54.1857C57.9199 53.9429 57.8351 53.7572 57.6514 53.6143C57.4818 53.4715 57.2133 53.4 56.8459 53.4ZM54.9242 57.7H57.0296C57.3829 57.7 57.6655 57.6143 57.8633 57.4572C58.0612 57.3 58.1601 57.0715 58.1601 56.8C58.1601 56.2429 57.7927 55.9572 57.0579 55.9572H54.9525V57.7H54.9242Z" fill="#045569"/>
<path d="M65.169 57.1286L62.4277 52.3857H63.7984L65.7908 55.8429L67.2603 52.3857H68.5745L66.3419 57.6C66.0027 58.4143 65.4093 58.8143 64.5756 58.8143C64.2364 58.8143 63.9397 58.7572 63.6853 58.6429C63.431 58.5286 63.1766 58.3572 62.9223 58.1143L63.4875 57.3286C63.6147 57.4429 63.7136 57.5143 63.7701 57.5572C63.8266 57.6 63.9114 57.6429 64.0245 57.6857C64.1375 57.7286 64.2506 57.7572 64.3777 57.7572C64.7734 57.7857 65.0136 57.5715 65.169 57.1286Z" fill="#045569"/>
<path d="M68.1787 59.7572V57.7C68.4896 57.6572 68.7581 57.4857 68.9983 57.1715C69.2385 56.8572 69.4222 56.5 69.5494 56.1C69.6765 55.7 69.7754 55.2429 69.8602 54.7286C69.9309 54.2143 69.9874 53.7715 70.0015 53.4C70.0157 53.0286 70.0298 52.6857 70.0298 52.3857H73.9298V57.7H74.82V59.7572H73.5907V58.7143H69.4081V59.7572H68.1787ZM70.0722 57.7H72.6863V53.4H71.2026C71.1744 53.8286 71.1461 54.2 71.1178 54.5286C71.0755 54.8572 71.0189 55.2429 70.9483 55.6572C70.8635 56.0857 70.7505 56.4715 70.6091 56.8143C70.4537 57.1715 70.2841 57.4715 70.0722 57.7Z" fill="#045569"/>
<path d="M75.2861 55.5286C75.2861 54.6143 75.6111 53.8429 76.2611 53.2286C76.9111 52.6143 77.7024 52.3 78.635 52.3C79.5677 52.3 80.359 52.6143 81.009 53.2286C81.659 53.8572 81.984 54.6143 81.984 55.5286C81.984 56.4429 81.659 57.2143 81.009 57.8572C80.359 58.5 79.5677 58.8143 78.635 58.8143C77.7024 58.8143 76.9111 58.5 76.2611 57.8572C75.6111 57.2143 75.2861 56.4429 75.2861 55.5286ZM77.1231 53.9858C76.7133 54.4143 76.5014 54.9286 76.5014 55.5286C76.5014 56.1286 76.7133 56.6572 77.1231 57.0858C77.5329 57.5286 78.0416 57.7429 78.6209 57.7429C79.2003 57.7429 79.709 57.5286 80.1187 57.0858C80.5285 56.6429 80.7405 56.1286 80.7405 55.5286C80.7405 54.9286 80.5285 54.4143 80.1187 53.9858C79.709 53.5572 79.2003 53.3429 78.6209 53.3429C78.0416 53.3572 77.547 53.5715 77.1231 53.9858Z" fill="#045569"/>
<path d="M83.1426 58.7143V52.3857H86.3361C87.085 52.3857 87.6361 52.5429 88.0176 52.8572C88.385 53.1715 88.5828 53.5572 88.5828 54.0286C88.5828 54.3286 88.5121 54.6 88.3567 54.8429C88.2013 55.0857 88.0034 55.2715 87.735 55.4C88.06 55.5 88.3284 55.6715 88.5263 55.9286C88.7241 56.1857 88.823 56.5 88.823 56.8715C88.823 57.4286 88.6252 57.8715 88.2295 58.2143C87.8339 58.5572 87.2687 58.7286 86.5339 58.7286H83.1426V58.7143ZM86.2937 53.4H84.3719V55.0143H86.2937C87.0143 55.0143 87.3676 54.7429 87.3676 54.1857C87.3676 53.9429 87.2828 53.7572 87.0991 53.6143C86.9154 53.4715 86.6469 53.4 86.2937 53.4ZM84.3719 57.7H86.4774C86.8306 57.7 87.1132 57.6143 87.3111 57.4572C87.5089 57.3 87.6078 57.0715 87.6078 56.8C87.6078 56.2429 87.2404 55.9572 86.5056 55.9572H84.4002V57.7H84.3719Z" fill="#045569"/>
<path d="M89.6709 55.5286C89.6709 54.6143 89.9959 53.8429 90.6459 53.2286C91.2959 52.6143 92.0872 52.3 93.0198 52.3C93.9524 52.3 94.7437 52.6143 95.3937 53.2286C96.0437 53.8572 96.3687 54.6143 96.3687 55.5286C96.3687 56.4429 96.0437 57.2143 95.3937 57.8572C94.7437 58.4858 93.9524 58.8143 93.0198 58.8143C92.0872 58.8143 91.2959 58.5 90.6459 57.8572C89.9959 57.2143 89.6709 56.4429 89.6709 55.5286ZM91.522 53.9858C91.1122 54.4143 90.9003 54.9286 90.9003 55.5286C90.9003 56.1286 91.1122 56.6572 91.522 57.0858C91.9318 57.5286 92.4405 57.7429 93.0198 57.7429C93.5992 57.7429 94.1079 57.5286 94.5176 57.0858C94.9274 56.6429 95.1394 56.1286 95.1394 55.5286C95.1394 54.9286 94.9274 54.4143 94.5176 53.9858C94.1079 53.5572 93.5992 53.3429 93.0198 53.3429C92.4405 53.3572 91.9318 53.5715 91.522 53.9858Z" fill="#045569"/>
<path d="M96.793 58.7572V57.7143C96.9625 57.7143 97.1038 57.6857 97.2451 57.6143C97.3723 57.5429 97.4854 57.4429 97.556 57.3143C97.6408 57.1857 97.6973 57.0429 97.7538 56.8857C97.8104 56.7286 97.8527 56.5429 97.881 56.3143C97.9093 56.0857 97.9375 55.8715 97.9375 55.6715C97.9517 55.4857 97.9517 55.2429 97.9658 54.9572L98.0223 52.4143H102.445V58.7429H101.216L101.23 53.4286H99.2234L99.181 54.9857C99.1669 55.3715 99.1528 55.7143 99.1245 56.0143C99.0962 56.3143 99.0538 56.6143 98.9832 56.9143C98.9125 57.2286 98.8278 57.4857 98.7147 57.6857C98.6017 57.9 98.4604 58.0857 98.2908 58.2572C98.1212 58.4286 97.9093 58.5572 97.6549 58.6429C97.4147 58.7143 97.118 58.7572 96.793 58.7572Z" fill="#045569"/>
<path d="M103.957 58.7143V52.3857H105.186L105.172 54.9715H106.924C107.249 54.9715 107.532 55 107.786 55.0429C108.041 55.1 108.281 55.1857 108.507 55.3C108.733 55.4286 108.917 55.6143 109.03 55.8572C109.157 56.1143 109.214 56.4143 109.214 56.7715C109.214 57.3429 109.016 57.8143 108.648 58.1715C108.281 58.5286 107.716 58.7 106.981 58.7H103.957V58.7143ZM105.186 55.9857V57.7H106.995C107.334 57.7 107.603 57.6286 107.758 57.4715C107.928 57.3143 108.012 57.0857 107.998 56.8C107.998 56.2572 107.645 55.9857 106.939 55.9857H105.186Z" fill="#045569"/>
<path d="M113.424 58.8C112.477 58.8 111.686 58.5 111.036 57.9143C110.4 57.3286 110.075 56.5429 110.075 55.5715C110.075 54.6143 110.4 53.8286 111.05 53.2143C111.7 52.6143 112.491 52.3 113.424 52.3C113.975 52.3 114.47 52.4143 114.922 52.6143C115.374 52.8286 115.727 53.1143 116.01 53.4715L115.19 54.1286C114.738 53.5858 114.159 53.3 113.467 53.3C112.859 53.3 112.35 53.5143 111.926 53.9286C111.502 54.3429 111.305 54.8858 111.305 55.5572C111.305 56.2143 111.516 56.7572 111.926 57.1572C112.336 57.5572 112.859 57.7715 113.467 57.7715C114.173 57.7715 114.752 57.5 115.19 56.9429L115.982 57.5572C115.742 57.9 115.402 58.2001 114.95 58.4286C114.512 58.6858 114.003 58.8 113.424 58.8Z" fill="#045569"/>
<path d="M116.548 53.4V52.3857H121.762V53.4H119.77L119.755 58.7143H118.554V53.4H116.548Z" fill="#045569"/>
<path d="M122.694 58.7143V52.3857H125.888C126.637 52.3857 127.188 52.5429 127.569 52.8572C127.937 53.1715 128.135 53.5572 128.135 54.0286C128.135 54.3286 128.064 54.6 127.908 54.8429C127.753 55.0857 127.555 55.2715 127.287 55.4C127.612 55.5 127.88 55.6715 128.078 55.9286C128.276 56.1857 128.375 56.5 128.375 56.8715C128.375 57.4286 128.177 57.8715 127.781 58.2143C127.386 58.5572 126.82 58.7286 126.086 58.7286H122.694V58.7143ZM125.845 53.4H123.924V55.0143H125.845C126.566 55.0143 126.919 54.7429 126.919 54.1857C126.919 53.9429 126.835 53.7572 126.651 53.6143C126.467 53.4715 126.199 53.4 125.845 53.4ZM123.924 57.7H126.029C126.382 57.7 126.665 57.6143 126.863 57.4572C127.061 57.3 127.16 57.0715 127.16 56.8C127.16 56.2429 126.792 55.9572 126.057 55.9572H123.924V57.7Z" fill="#045569"/>
<path d="M129.548 58.7143V52.3857H130.777V56.8429L133.985 52.3857H135.257V58.7143H134.027V54.3L130.862 58.7143H129.548Z" fill="#045569"/>
<path d="M136.754 52.3857H141.516V53.3857H137.983V55.0572H141.05V56.0286H137.983V57.7H141.516V58.7H136.754V52.3857Z" fill="#045569"/>
</g>
<defs>
<clipPath id="clip0_260_120">
<rect width="143" height="63" fill="white"/>
</clipPath>
</defs>
</svg>
