<svg width="315" height="175" viewBox="0 0 315 175" fill="none" xmlns="http://www.w3.org/2000/svg">
<path d="M314.421 166.834C309.465 166.567 304.534 167.377 299.577 167.239C294.578 167.101 289.595 166.705 284.587 166.662C279.476 166.619 274.357 166.722 269.255 166.567C264.281 166.412 259.316 165.921 254.342 165.835C248.639 165.74 242.937 166.068 237.243 165.93C236.651 163.975 237.303 162.398 238.28 160.831C238.349 160.753 238.417 160.667 238.495 160.59C238.572 160.512 238.615 160.426 238.64 160.348C238.658 160.348 238.675 160.357 238.692 160.357C240.493 160.641 242.216 159.883 243.657 158.832C245.089 157.79 245.775 156.291 245.012 154.577C244.978 154.5 244.943 154.431 244.9 154.362C245.003 154.164 244.969 153.905 244.84 153.716C245.895 151.7 246.873 149.538 247.473 147.368C248.116 145.042 248.459 142.639 249.051 140.296C249.728 137.617 250.56 134.973 251.366 132.32C253.484 125.317 255.508 118.263 256.64 111.028C257.738 103.965 258.124 96.445 255.903 89.5456C254.874 86.3414 253.244 83.3439 250.998 80.8288C248.073 77.5557 244.129 75.2989 240.321 73.2231C237.457 71.6554 234.447 70.2687 231.266 69.4848C229.285 69.0025 227.244 68.8388 225.254 68.3823C224.165 68.1325 223.093 67.7794 222.073 67.3143C221.215 66.9266 220.323 66.5304 219.843 65.6691C219.329 64.7474 219.303 63.576 219.037 62.5682C218.54 60.7077 217.279 59.5018 215.35 59.2262C214.938 59.1659 214.501 59.1573 214.055 59.1573C213.532 58.8989 212.966 58.83 212.348 59.0625C212.22 59.1142 212.1 59.1745 211.971 59.2434C211.242 59.2607 210.539 59.2262 209.904 59.0453C209.295 58.0892 208.506 57.2193 207.606 56.4613C207.066 54.3596 207.906 52.0253 208.867 50.1734C209.415 49.114 209.99 48.1837 210.273 47.0123C210.659 45.4102 210.993 43.8081 211.405 42.2146C212.82 36.745 214.835 31.3444 214.518 25.6078C213.978 16.0124 207.006 7.68319 198.259 4.24641C197.23 3.84158 195.952 3.69515 194.992 3.19557C194.743 3.06637 194.554 2.82519 194.314 2.69599C193.68 2.34283 192.813 2.1964 192.127 1.9983C189.383 1.19724 186.579 0.602913 183.741 0.258374C178.347 -0.404863 172.987 0.189466 167.945 2.26531C163.383 4.14305 159.249 7.06302 155.665 10.4395C152.912 13.0408 149.816 16.624 151.574 20.6551C152.475 22.7051 154.876 24.0402 154.876 26.4433C154.876 26.6328 154.953 26.7793 155.056 26.874C155.056 27.9335 155.005 28.9671 154.936 30.0007C154.927 30.0696 154.91 30.1299 154.91 30.1988C154.902 30.2505 154.91 30.3022 154.91 30.3452C154.842 31.3013 154.756 32.266 154.67 33.2394C154.524 34.9276 154.241 36.4953 154.464 38.2007C154.722 40.1904 155.528 42.1888 156.462 43.9545C157.517 45.9442 158.212 48.2699 158.349 50.5266C158.4 51.3363 158.186 52.1115 158.237 52.8867C157.714 52.5508 157.097 52.3354 156.368 52.3182C154.85 52.2751 153.384 52.7661 152.029 53.4207C149.988 54.4113 147.896 55.2554 145.777 56.0737C144.217 56.6766 142.647 57.2796 141.104 57.9514C139.312 58.7266 138.008 59.3985 136.645 60.7852C134.338 63.1281 132.314 65.7638 130.539 68.5374C126.997 74.0931 124.442 80.2258 122.118 86.3759C119.417 93.5164 116.69 100.657 114.151 107.858C111.699 114.809 108.629 122.578 109.332 130.089C109.564 132.587 110.172 135.016 111.887 136.756C110.653 136.618 109.426 136.498 108.226 136.36C104.573 135.946 100.902 135.783 97.2407 136.239C95.6285 136.446 94.8739 136.997 93.8277 138.255C92.5585 139.779 91.2808 141.287 90.0545 142.846C88.9226 144.293 87.8335 145.774 86.8645 147.333C86.1699 148.453 85.5096 149.461 85.3209 150.701C84.7549 149.383 84.1804 148.066 83.7602 146.679C82.7826 143.475 81.8993 140.288 80.8017 137.118C79.6697 133.862 78.5549 130.597 77.4144 127.333C76.1538 123.715 74.8418 120.106 73.7956 116.428C72.7408 112.733 71.8661 108.995 70.5712 105.369C70.5369 105.274 70.4855 105.196 70.4254 105.136C70.0138 104.102 68.9933 103.706 67.8357 103.637C65.2716 103.482 62.6647 103.586 60.0921 103.611C54.2094 103.663 48.3352 103.87 42.4525 104.12C30.8157 104.628 19.1789 105.308 7.5249 105.351C5.51826 105.36 -0.596 104.395 0.0471543 108.082C0.0643051 108.177 0.0986067 108.263 0.141484 108.323C0.150059 108.383 0.158634 108.444 0.184361 108.504C3.04854 115.55 5.78409 122.647 8.56252 129.727C11.8726 138.169 14.5824 146.834 18.0126 155.241C19.8992 159.866 21.2541 164.853 24.204 168.953C24.2126 168.97 24.2298 168.988 24.2469 168.996C24.2555 169.014 24.2641 169.022 24.2726 169.039C25.1216 170.039 26.245 170.366 27.497 170.547C29.4693 170.822 31.476 170.96 33.4569 171.167C37.7446 171.598 42.0237 172.028 46.3114 172.433C54.5524 173.208 62.8105 173.897 71.0772 174.362C75.1934 174.595 79.3181 174.767 83.4429 174.871C87.4733 174.974 91.5466 175.138 95.5685 174.785C103.424 174.087 111.004 171.718 118.576 169.642C122.384 168.6 126.217 167.618 130.11 166.946C133.36 166.386 136.593 166.671 139.843 166.274C140.375 166.206 140.898 166.094 141.413 165.939C142.647 166.145 143.882 166.343 145.117 166.55C161.282 169.186 177.661 168.695 193.971 168.566C198.585 168.531 203.19 168.523 207.803 168.703C212.348 168.876 216.713 168.247 221.224 167.971C225.006 167.739 228.967 167.911 232.552 166.473C233.898 165.939 234.884 165.301 235.793 164.173C235.802 164.164 235.802 164.156 235.811 164.156C235.759 164.957 235.879 165.792 236.222 166.697C236.325 166.955 236.514 167.136 236.805 167.136C241.968 167.282 247.13 167.024 252.292 167.032C257.266 167.032 262.274 167.36 267.239 167.67C277.35 168.29 287.494 167.584 297.605 168.333C303.222 168.746 308.804 167.747 314.421 168.049C315.193 168.083 315.193 166.877 314.421 166.834ZM237.363 158.669C237.431 158.514 237.44 158.333 237.328 158.143C237.234 157.988 237.148 157.833 237.063 157.678C237.063 157.67 237.063 157.67 237.063 157.661C237.088 157.394 236.96 157.222 236.78 157.144C236.299 156.214 235.879 155.258 235.399 154.328C234.619 152.794 233.572 151.382 232.62 149.952C230.863 147.299 229.087 144.663 227.261 142.053C224.199 137.686 221.232 133.285 217.03 130.02C227.475 132.062 235.553 142.82 241.307 151.106C241.419 151.27 241.573 151.347 241.728 151.365C241.882 151.64 242.011 151.942 242.156 152.278C242.388 152.794 242.782 153.303 243.168 153.837C240.99 154.767 239.601 156.722 238.254 158.695C238.169 158.824 238.083 158.944 237.997 159.074C237.749 158.979 237.526 158.841 237.363 158.669ZM145.006 139.762C145.246 136.567 146.155 133.345 146.892 130.236C149.876 117.781 154.396 105.773 157.371 93.3269C156.994 96.2038 156.497 99.0635 156.025 101.923C155.468 105.248 154.842 108.607 154.593 111.966C154.327 115.498 154.036 118.961 153.341 122.449C152.689 125.722 151.84 128.952 150.82 132.131C149.859 135.12 148.882 138.901 146.189 140.847C145.795 141.132 145.383 141.338 144.963 141.468C144.946 140.873 144.971 140.288 145.006 139.762ZM140.795 96.023C141.567 92.8532 142.802 89.7437 144.182 86.7979C144.766 85.5576 145.383 84.3345 146.043 83.1286C146.832 81.6729 147.844 79.0975 149.285 78.2017C149.945 77.7882 150.794 77.6935 151.506 77.3748C152.166 77.0733 152.732 76.6168 153.35 76.2292C154.524 75.5057 155.768 74.8855 156.883 74.0672C157.792 73.404 158.692 72.5857 159.198 71.5607C159.275 71.397 159.352 71.2162 159.429 71.0525C159.712 70.5012 159.644 70.3548 160.253 70.217C160.827 70.0792 161.445 70.1481 162.028 69.9844C162.534 69.838 162.963 69.6054 163.314 69.304C165.329 71.733 167.645 74.2912 170.363 76.0139C170.355 76.0311 170.337 76.0569 170.329 76.0742C170.286 76.0742 170.234 76.0828 170.192 76.0828C169.797 76.1 169.608 76.4187 169.608 76.7202C169.394 76.8235 169.18 76.9183 168.965 77.0216C168.288 77.3403 167.61 77.6504 166.933 77.9519C165.587 78.5634 164.24 79.1664 162.903 79.8038C160.278 81.0614 157.697 82.4395 155.365 84.1967C154.284 85.0149 153.238 85.9021 152.303 86.8841C151.995 87.2114 151.849 87.4267 151.626 87.8057C151.12 88.6498 150.571 89.2614 149.911 89.9935C147.981 92.1469 146.438 94.6017 145.006 97.1083C143.093 100.459 141.241 103.784 139.629 107.238C139.586 103.474 139.895 99.7095 140.795 96.023ZM163.477 66.8061C163.426 66.9783 163.366 67.142 163.297 67.3056C163.271 67.2281 163.254 67.1506 163.237 67.0817C162.997 66.16 162.748 65.2384 162.499 64.3254C161.985 62.4304 161.47 60.5441 160.956 58.6491C161.942 59.8722 162.86 61.1298 163.288 62.6888C163.666 64.0153 163.88 65.4624 163.477 66.8061ZM143.925 142.837C144.294 144.956 145.332 146.67 147.604 147.153C148.187 147.273 148.779 147.325 149.379 147.351C148.436 147.523 147.493 147.695 146.541 147.842C144.748 148.117 143.05 148.29 141.275 147.807C139.612 147.351 138.085 146.498 136.696 145.482C135.496 144.612 134.518 143.354 133.309 142.536C133.077 142.381 132.803 142.303 132.52 142.26C132.829 142.2 133.129 142.122 133.42 142.019C134.741 141.545 135.881 140.701 137.031 139.909C137.897 139.306 138.274 138.651 139.209 139.667C139.766 140.279 140.169 140.985 140.795 141.554C141.738 142.415 142.819 142.829 143.925 142.837ZM149.962 146.128C148.547 146.076 146.987 146.119 145.983 144.93C145.477 144.327 145.203 143.535 145.074 142.691C145.786 142.51 146.472 142.165 147.124 141.657C149.482 139.797 150.537 136.782 151.471 134.034C152.835 129.994 153.941 125.869 154.722 121.674C155.476 117.6 155.579 113.5 156.102 109.4C156.668 104.955 157.526 100.554 158.195 96.1263C158.512 94.016 158.795 91.8971 158.992 89.761C159.215 87.3836 159.455 85.0322 160.433 82.8185C160.51 82.6635 160.519 82.517 160.493 82.3878C162.499 81.3025 164.575 80.355 166.65 79.4076C168.005 78.796 169.385 78.2189 170.706 77.5298C170.869 77.4437 171.049 77.3403 171.212 77.2111C171.692 77.1681 172.173 77.1422 172.644 77.1939C172.961 77.3231 173.287 77.4437 173.622 77.5557C173.845 77.6246 174.068 77.6849 174.291 77.7365C174.479 77.8141 174.659 77.883 174.831 77.9433C176.589 78.5462 178.235 80.1483 179.17 81.7504C179.89 82.9822 180.165 84.4292 180.413 85.8332C179.564 87.866 178.776 90.028 178.45 92.19C178.252 93.525 177.729 94.774 177.309 96.0488C176.786 97.6251 176.417 99.1583 176.134 100.803C175.577 104.12 175.157 107.462 173.999 110.631C172.799 113.93 171.718 117.272 170.663 120.614C168.682 126.911 166.324 133.13 165.381 139.676C165.304 140.201 165.235 140.744 165.149 141.295C164.429 142.605 163.657 143.699 162.74 144.861C162.354 144.939 161.976 145.025 161.608 145.137C161.127 145.283 160.724 145.585 160.27 145.774C159.146 146.231 157.757 146.084 156.548 146.196C155.862 146.265 155.185 146.351 154.507 146.446C152.998 146.351 151.489 146.188 149.962 146.128ZM187.848 79.175C187.84 79.2611 187.857 79.3387 187.883 79.4076C186.682 79.399 185.507 79.6746 184.435 80.3723C183.038 81.2767 182.026 82.5859 181.245 84.0244C180.894 82.5515 180.388 81.1992 179.393 79.9933C178.75 79.2181 178.012 78.4084 177.172 77.7796C177.918 77.6504 178.664 77.4179 179.436 77.1164C180.371 76.746 180.791 76.7891 181.888 76.3153C184.341 75.2645 186.631 73.8519 188.637 72.0689C188.646 72.0603 188.654 72.0517 188.663 72.043C188.226 74.4031 187.986 76.7891 187.848 79.175ZM180.799 93.2408C180.534 94.8515 179.959 96.3933 179.419 97.9265C178.741 99.8387 178.132 101.777 177.438 103.689C177.069 104.697 176.7 105.696 176.34 106.695C176.4 106.437 176.46 106.17 176.512 105.903C177.163 102.431 177.601 99.0549 178.698 95.687C179.504 93.215 180.002 90.7171 180.817 88.2536C181.014 89.9074 181.065 91.6129 180.799 93.2408ZM173.579 115.507C172.781 118.754 172.07 122.018 171.092 125.223C170.012 128.763 168.554 132.156 167.345 135.645C167.267 135.877 167.182 136.119 167.104 136.351C167.748 133.173 168.957 130.106 169.926 127.023C171.023 123.526 172.087 120.011 173.236 116.532C173.347 116.178 173.467 115.843 173.579 115.507ZM166.144 142.389C166.17 142.243 166.195 142.096 166.221 141.95C166.71 141.02 167.156 140.064 167.499 139.099C168.845 135.3 170.234 131.502 171.555 127.686C172.884 123.844 173.759 119.874 174.719 115.937C175.808 111.467 177.446 107.264 178.981 102.94C180.371 99.0291 182.189 94.9635 182.163 90.7515C182.154 89.1322 181.94 87.5645 181.657 85.9883C182.514 83.9296 183.724 81.9313 185.79 80.9924C189.066 79.5023 193.234 81.9744 195.48 84.257C196.947 85.7557 199.056 88.6498 201.432 88.5895C203.884 88.5292 203.104 85.8677 202.101 84.6446C200.06 82.1553 197.367 80.2603 195.326 77.7538C195.009 77.3662 194.932 77.0303 194.983 76.7288C196.964 76.7115 198.988 76.8063 200.754 77.8141C201.852 78.4429 202.418 79.1922 202.804 80.3723C203.044 81.0958 203.258 81.7504 203.67 82.3878C204.253 83.2922 204.81 84.0933 205.291 85.058C205.471 85.4284 205.608 85.8074 205.977 86.0313C206.749 86.5051 207.512 85.971 208.069 85.4025C210.35 83.0597 211.851 79.7693 213.403 76.9355C214.415 75.0836 215.547 73.3178 216.679 71.5349C217.365 70.4409 218.3 69.5451 219.097 68.546C220.049 70.5012 220.846 72.5254 221.515 74.6099C222.064 76.3239 222.501 78.0811 222.656 79.8727C222.827 81.8882 222.467 83.7832 222.133 85.7557C221.532 89.2872 220.984 92.8274 220.375 96.3589C219.775 99.8301 219.123 103.293 218.325 106.721C217.528 110.115 216.885 113.844 214.775 116.687C213.969 117.772 213.051 118.53 212.751 119.891C212.503 121.019 212.657 122.191 213.129 123.233C213.334 123.689 213.6 124.103 213.909 124.473C213.84 124.49 213.763 124.508 213.695 124.525C211.919 125.007 210.727 126.808 212.331 128.212C212.468 128.332 212.605 128.444 212.751 128.547C210.024 128.651 207.452 129.254 204.845 130.322C202.109 131.442 199.965 133.44 197.316 134.68C195.712 135.43 194.048 135.481 192.333 135.731C190.455 136.007 188.646 136.834 186.871 137.497C183.552 138.737 180.259 140.029 176.915 141.209C173.665 142.346 170.372 143.38 167.01 144.138C166.581 144.233 166.144 144.31 165.698 144.379C165.895 143.742 166.015 143.009 166.144 142.389ZM211.499 61.3365C211.714 61.1212 212.031 60.6905 212.28 60.5441C212.383 60.4838 212.477 60.4407 212.571 60.3976C212.94 60.3718 213.309 60.346 213.677 60.3287C213.96 60.4838 214.166 60.768 214.432 61.035C215.667 62.2237 216.619 64.1187 217.493 65.5916C217.836 66.1773 218.162 66.763 218.48 67.3659C217.682 68.4512 216.653 69.3556 215.907 70.4926C214.852 72.1033 213.806 73.7313 212.863 75.4109C211.199 78.3912 209.69 81.5523 207.512 84.2053C206.98 84.8599 206.671 85.2131 206.26 84.3C205.917 83.5334 205.471 82.8616 204.991 82.1811C204.107 80.9235 203.996 79.287 203.035 78.1155C201.329 76.0311 198.405 75.5832 195.823 75.5315C195.952 75.4109 196.081 75.2903 196.209 75.1697C196.784 74.6099 197.367 74.0586 197.95 73.5246C199.271 72.3187 200.634 71.1645 202.058 70.0964C204.742 68.0895 207.134 65.5916 209.544 63.2573C210.204 62.6285 210.856 61.9911 211.499 61.3365ZM244.137 156.214C243.974 157.738 241.385 159.048 239.378 159.194C240.587 157.42 241.822 155.645 243.846 154.87C244.051 155.301 244.18 155.749 244.137 156.214ZM221.961 68.5891C225.889 70.2514 230.262 70.1825 234.267 71.7071C238.4 73.2834 242.328 75.6004 245.981 78.0725C248.922 80.0622 251.349 82.7065 253.03 85.8418C256.4 92.1297 256.674 99.6234 255.997 106.583C255.294 113.801 253.484 120.864 251.452 127.807C250.612 130.692 249.711 133.56 248.871 136.446C247.893 139.788 247.319 143.208 246.444 146.575C245.887 148.72 244.96 150.865 243.931 152.872C243.64 152.458 243.365 152.036 243.168 151.563C242.997 151.149 242.937 150.71 242.671 150.34C242.414 149.978 241.779 149.693 241.702 149.228C241.642 148.91 241.41 148.78 241.17 148.798C238.04 144.353 234.73 139.977 230.691 136.325C226.309 132.363 220.958 128.995 214.955 128.616C213.806 127.996 212.091 126.997 213.394 125.972C213.875 125.593 214.535 125.627 215.135 125.679C216.344 126.592 217.811 127.238 219.123 127.858C221.936 129.185 224.8 129.779 227.784 130.503C230.176 131.08 233.058 131.648 235.528 131.243C237.243 130.968 239.755 129.581 238.983 127.514C238.229 125.481 235.871 124.792 233.924 124.594C230.528 124.241 226.986 124.568 223.573 124.628C221.867 124.663 220.16 124.68 218.454 124.637C217.511 124.62 216.456 124.439 215.444 124.404C215.367 124.344 215.29 124.275 215.221 124.215C214.201 123.233 213.635 121.786 213.883 120.373C214.149 118.814 215.675 117.651 216.49 116.316C218.068 113.732 218.651 110.537 219.346 107.617C220.881 101.174 221.867 94.619 222.947 88.09C223.462 84.9633 224.148 81.9916 223.719 78.8132C223.325 75.9019 222.347 73.0508 221.224 70.3548C220.821 69.3901 220.383 68.4426 219.912 67.5124C220.512 67.9603 221.224 68.279 221.961 68.5891ZM217.674 125.817C217.931 125.826 218.188 125.834 218.445 125.843C221.858 125.92 225.271 125.774 228.693 125.731C231.188 125.696 235.099 125.111 237.157 126.937C238.632 128.246 237.414 129.478 235.922 129.917C234.661 130.287 233.272 130.132 231.994 129.951C229.147 129.547 226.275 129.107 223.505 128.272C222.047 127.833 220.632 127.255 219.26 126.592C218.771 126.351 218.222 126.093 217.674 125.817ZM218.197 64.446C217.871 63.9119 217.536 63.3779 217.185 62.8525C216.773 62.2323 216.241 61.3021 215.59 60.501C215.633 60.5096 215.667 60.5182 215.71 60.5268C217.639 61.0781 217.836 62.8008 218.197 64.446ZM156.068 26.1246C155.939 24.333 154.79 23.1013 153.684 21.7404C152.055 19.7248 151.866 17.4336 153.178 15.1941C154.327 13.2303 156.094 11.6971 157.749 10.1811C159.627 8.46701 161.848 6.87352 164.043 5.5815C168.794 2.78212 174.119 1.1714 179.642 1.18863C182.523 1.19724 185.43 1.64514 188.234 2.26531C189.623 2.5754 191.004 2.93716 192.368 3.35061C192.908 3.51427 193.474 3.64347 193.963 3.93633C194.228 4.09137 194.391 4.27225 194.683 4.39284C195.729 4.82351 196.895 5.02162 197.95 5.44368C199.142 5.91743 200.3 6.4773 201.406 7.13193C203.447 8.3292 205.299 9.81933 206.929 11.542C210.633 15.4784 213.086 20.4397 213.334 25.8921C213.6 31.62 211.508 37.0207 210.11 42.4902C209.776 43.7995 209.475 45.1259 209.184 46.4438C208.841 47.977 207.949 49.1054 207.349 50.518C206.688 52.077 206.157 53.7825 206.251 55.488C205.454 54.9539 204.63 54.4974 203.824 54.1356C202.847 53.6964 200.892 53.2829 200.351 52.2407C200.06 51.6808 200.223 51.3535 200.72 50.9831C201.252 50.5869 201.423 50.7678 202.032 50.7333C202.684 50.6989 203.155 50.4405 203.558 49.9237C204.57 48.6402 204.853 46.7022 205.085 45.1346C205.419 42.9381 205.719 40.7245 206.02 38.528C206.423 35.5908 203.644 33.4547 201.02 34.9793C199.622 35.7889 198.688 37.081 197.822 38.3988C196.347 40.6383 194.434 39.4841 192.848 38.0371C191.519 36.8226 190.284 35.4702 189.006 34.2041C187.145 32.3608 185.842 30.3452 185.43 27.7095C184.924 24.4105 182.266 22.9721 179.093 23.2047C175.405 23.4803 172.318 25.47 169.283 27.3908C167.199 28.7173 164.935 30.2849 162.294 29.6562C161.042 29.3547 161.342 28.433 160.81 27.52C160.484 26.9688 159.953 26.4864 159.464 26.0988C158.555 25.3839 157.337 24.8757 156.565 26.0213C156.462 26.1763 156.351 26.3486 156.248 26.5295C156.239 26.34 156.171 26.2108 156.068 26.1246ZM156.394 40.7848C155.579 38.528 155.485 36.435 155.785 34.0835C155.965 32.6536 156.102 31.2496 156.179 29.837C156.411 28.8293 157.208 26.6242 157.903 26.5208C158.375 26.4519 159.275 27.4339 159.541 27.7784C160.03 28.4244 159.978 29.148 160.338 29.837C160.922 30.9309 162.294 30.8793 163.366 30.8707C165.218 30.8707 166.727 30.4314 168.305 29.4494C171.486 27.4683 174.565 25.0479 178.364 24.4536C179.942 24.2038 181.828 24.2555 183.098 25.3666C184.581 26.6673 184.341 29.2083 185.156 30.9482C185.962 32.6795 187.162 34.0404 188.517 35.3583C189.735 36.5469 190.867 37.839 192.136 38.9673C193.851 40.5005 196.389 41.9045 198.267 39.82C199.399 38.5625 199.957 37.0121 201.466 36.0732C202.529 35.41 203.687 35.3583 204.467 36.4953C205.222 37.5978 204.708 38.9329 204.527 40.1387C204.253 42.0596 204.107 43.9976 203.739 45.9012C203.567 46.7625 203.387 47.7186 202.967 48.511C202.281 49.8117 201.715 49.2346 200.66 49.493C199.579 49.7514 198.799 51.0003 199.005 52.1029C199.219 53.2485 200.42 53.9203 201.372 54.3682C203.078 55.1693 204.991 56.0306 206.586 57.2193C206.946 58.2959 207.58 59.2779 208.566 59.8636C208.764 59.9842 208.97 60.0789 209.184 60.1565C209.39 60.5527 209.553 60.9833 209.681 61.4312C209.613 61.5002 209.553 61.5691 209.484 61.638C208.309 62.7922 207.117 63.9292 205.917 65.0489C203.516 67.297 200.969 69.304 198.482 71.4401C197.341 72.422 196.244 73.447 195.163 74.4979C194.469 75.187 193.431 75.833 193.551 76.9269C193.662 77.9002 194.511 78.6926 195.129 79.3817C196.166 80.5359 197.298 81.5954 198.413 82.6721C198.919 83.1544 199.434 83.6454 199.922 84.1364C200.377 84.5843 201.397 85.3939 201.578 86.0227C202.169 88.0555 200.411 87.0822 199.794 86.686C199.048 86.2036 198.405 85.5834 197.779 84.9546C195.918 83.0511 194.263 81.3456 191.767 80.2775C190.867 79.8899 189.898 79.5971 188.929 79.4679C188.989 79.3817 189.023 79.2784 189.032 79.1578C189.203 76.1861 189.538 73.2317 190.198 70.329C192.831 67.254 197.23 61.3537 194.623 60.7594C193.611 60.5268 192.316 61.6294 191.767 62.3873C190.764 63.7741 190.224 65.7811 189.726 67.4004C189.469 68.2359 189.246 69.0886 189.049 69.9414C187.9 71.13 186.639 72.1981 185.259 73.1111C183.724 74.1275 181.871 75.2042 180.156 75.6263C179.702 75.7382 179.299 75.8502 178.861 76.0311C177.498 76.5824 176.194 76.8408 174.788 76.5824C174.273 76.367 173.75 76.1431 173.219 76.0311C173.09 76.0052 172.97 75.988 172.841 75.9708C169.351 74.4807 166.487 71.2765 164.094 68.3651C164.823 67.1592 164.986 65.5399 164.806 64.1273C164.643 62.8525 164.326 61.1384 163.623 60.0531C163.486 59.8464 163.271 59.6999 163.108 59.5191C162.662 59.0281 162.474 58.5285 162.114 57.9945C161.608 57.2537 160.853 56.668 160.304 55.9272C160.27 55.8756 160.227 55.8411 160.184 55.798C160.013 55.1606 159.841 54.5232 159.67 53.8858C159.592 53.593 159.507 53.3001 159.438 52.9987C159.421 52.9384 159.412 52.8781 159.395 52.8264C159.404 52.7919 159.412 52.6627 159.455 52.4302C159.781 50.5094 159.327 48.4766 158.812 46.6333C158.237 44.5747 157.114 42.7917 156.394 40.7848ZM190.995 67.7019C191.87 65.0661 193.311 61.3623 194.211 62.172C194.383 62.327 192.728 65.0575 192.548 65.359C192.076 66.1687 191.561 66.9525 190.995 67.7019ZM112.642 135.817C110.172 133.25 110.25 128.875 110.584 125.559C110.936 122.001 111.982 118.521 113.019 115.119C115.052 108.487 117.582 102.027 120.008 95.5406C122.247 89.5801 124.305 83.542 126.963 77.7538C129.724 71.7416 133.197 65.3934 138.197 60.9489C139.843 59.4846 142.219 58.7611 144.242 57.9686C146.112 57.2365 147.99 56.5302 149.834 55.755C151.532 55.0314 153.195 53.9806 155.03 53.6533C156.291 53.4207 157.526 53.481 158.315 54.6008C158.924 55.4621 159.164 56.5302 159.206 57.5638C159.215 57.8308 159.369 58.0031 159.558 58.0892C159.978 59.6483 160.407 61.2073 160.836 62.775C161.162 63.9722 161.488 65.1609 161.805 66.3582C161.916 66.7716 162.028 67.1937 162.131 67.6071C162.199 67.8914 162.191 68.4168 162.285 67.9689C162.242 68.1756 162.294 68.3479 162.397 68.4771C162.199 68.6235 161.968 68.7355 161.702 68.8044C160.964 69.0111 160.184 68.8475 159.464 69.0111C158.778 69.1662 158.529 69.6054 158.315 70.2601C157.886 71.5349 157.208 72.3445 156.102 73.137C154.061 74.5926 151.754 75.9277 149.448 76.8149C147.141 77.7021 146.12 80.4584 144.997 82.5084C143.659 84.9546 142.476 87.487 141.464 90.0883C139.192 95.9368 138.248 101.966 138.428 108.245C138.445 108.754 138.463 109.27 138.488 109.779C137.854 111.277 137.271 112.802 136.756 114.37C135.727 117.471 134.904 120.623 134.492 123.87C134.115 126.799 133.746 130.21 134.389 133.121C134.724 134.663 135.856 137.583 137.802 137.66C139.569 137.729 141.087 135.473 141.575 134.06C142.279 132.07 142.236 129.805 141.953 127.738C141.464 124.163 140.829 120.606 140.375 117.023C140.075 114.68 139.835 112.311 139.715 109.942C141.515 105.722 143.745 101.734 146.043 97.7198C147.698 94.8343 149.499 92.121 151.823 89.7351C152.252 89.2872 152.363 88.9857 152.663 88.4689C153.101 87.7023 153.761 87.1166 154.404 86.5395C155.631 85.437 156.968 84.4723 158.375 83.6023C158.538 83.499 158.701 83.4042 158.863 83.3095C158.452 84.1967 158.083 85.0752 157.843 86.0572C157.38 87.9091 156.977 89.7782 156.548 91.6387C155.751 95.1013 154.936 98.5553 153.941 101.966C151.952 108.771 149.645 115.472 147.733 122.303C146.772 125.739 145.88 129.202 145.109 132.691C144.465 135.576 143.608 138.634 143.797 141.631C143.153 141.597 142.51 141.373 141.927 140.916C140.872 140.089 140.375 138.634 139.166 138.039C138.162 137.549 137.665 138.005 136.808 138.599C135.564 139.443 134.346 140.434 132.897 140.916C131.336 141.433 129.356 141.132 127.743 140.959C127.34 140.916 126.946 140.865 126.551 140.796C123.97 139.805 121.492 138.522 118.782 137.859C117.359 137.514 115.884 137.264 114.4 137.066C113.748 136.747 113.157 136.351 112.642 135.817ZM138.686 112.535C139.089 117.255 139.878 121.95 140.581 126.627C140.941 128.978 141.267 131.631 140.358 133.914C140.023 134.741 139.003 136.403 137.94 136.377C136.593 136.343 135.839 134.069 135.598 133.009C134.887 129.891 135.35 126.144 135.821 123.018C136.284 120.003 137.125 117.066 138.094 114.18C138.283 113.629 138.48 113.078 138.686 112.535ZM88.1851 147.497C89.9516 144.749 92.0526 142.243 94.145 139.745C94.6681 139.125 95.2341 138.186 95.963 137.781C96.6833 137.376 97.6609 137.393 98.4584 137.316C100.268 137.144 102.094 137.135 103.912 137.213C107.394 137.376 110.841 137.902 114.289 138.375C115.292 138.806 116.372 139.099 117.384 139.418C119.194 139.986 120.969 140.624 122.77 141.201C123.927 141.571 125.145 141.812 126.363 141.993C126.92 142.217 127.486 142.424 128.078 142.596C128.875 142.837 129.69 143.027 130.505 143.19C131.234 143.337 132.134 143.311 132.777 143.699C133.78 144.301 134.638 145.421 135.581 146.145C136.67 146.98 137.828 147.721 139.08 148.281C143.882 150.434 149.225 148.608 154.267 147.73C155.022 147.773 155.785 147.807 156.548 147.807C157.946 147.807 159.352 147.704 160.733 147.488C159.301 149.444 157.972 151.459 156.642 153.509C155.716 154.939 154.833 156.343 153.607 157.54C152.08 159.031 150.528 160.142 148.573 160.934C146.146 161.916 143.934 163.871 141.43 164.698C137.94 164.121 134.449 163.604 130.942 163.087C128.978 162.795 126.869 162.657 124.939 162.209C122.658 161.683 121.706 159.754 120.411 158.023C118.688 155.723 116.698 153.802 113.783 153.311C111.313 152.898 108.543 153.518 107.214 155.844C106.665 156.8 106.305 157.859 105.302 158.479C104.967 158.686 104.658 158.789 104.375 158.807C104.135 158.755 103.895 158.695 103.655 158.643C103.192 158.367 102.918 157.764 102.96 157.024C103.063 155.318 103.844 153.492 104.821 152.114C105.79 150.744 107.171 149.633 108.835 149.28C109.478 149.142 110.404 149.194 110.481 148.315C110.567 147.299 109.221 146.696 108.466 146.446C107.077 145.998 105.482 146.033 104.178 146.722C101.717 148.031 100.534 151.046 100.199 153.664C100.028 155.025 100.019 156.395 100.028 157.756C99.4531 157.609 98.8786 157.454 98.304 157.291C96.9062 156.894 95.5256 156.464 94.1107 156.119C94.145 155.232 94.2993 154.345 94.5823 153.501C95.1311 151.899 96.5032 150.572 96.8291 148.875C96.8891 148.548 96.8634 148.152 96.7433 147.799C96.8462 147.514 96.6576 147.17 96.3832 147.041C96.3746 147.032 96.366 147.032 96.3574 147.023C96.2803 146.989 96.1859 146.972 96.1002 146.989C95.963 146.92 95.8086 146.886 95.6285 146.886C95.1569 146.886 94.7967 147.273 94.6681 147.73C94.5823 147.833 94.5137 147.954 94.488 148.091C94.4794 148.152 94.4708 148.221 94.4708 148.281C93.9649 148.78 93.4847 149.314 93.0387 149.883C92.1984 150.96 91.418 152.777 90.2603 153.518C88.8454 154.414 86.8302 153.905 86.53 152.166C86.2213 150.383 87.2589 148.944 88.1851 147.497ZM95.3627 149.099C95.4141 149.108 95.4656 149.116 95.5085 149.116C95.174 150.202 94.0592 151.718 93.8448 152.174C93.3046 153.328 92.9959 154.595 92.9187 155.869C92.8672 155.861 92.8158 155.844 92.7643 155.835C92.6186 155.809 90.4404 155.335 89.0255 155.146C89.2313 155.129 89.4371 155.103 89.66 155.051C91.1093 154.732 91.7353 153.828 92.5328 152.665C93.3989 151.416 94.2736 150.159 95.3627 149.099ZM100.036 159.254C100.036 160.77 100.508 164.629 98.2526 164.5C96.3231 164.388 95.1998 161.115 94.6509 159.599C94.3937 158.893 94.2307 158.143 94.1535 157.394C95.2598 157.678 96.3574 157.997 97.4551 158.307C98.3126 158.557 99.1702 158.781 100.036 158.996C100.036 159.091 100.036 159.177 100.036 159.254ZM89.2999 156.291C90.2689 156.421 91.2293 156.757 92.1898 156.946C92.4385 156.998 92.6786 157.049 92.9273 157.11C93.0988 159.702 94.2565 162.726 95.963 164.612C97.4036 166.206 100.396 166.128 100.945 163.802C101.288 162.355 101.323 160.839 101.297 159.323C101.811 159.453 102.334 159.573 102.858 159.694C103.286 159.987 103.784 160.081 104.307 160.021C105.919 160.383 107.523 160.736 109.135 161.115C110.987 161.554 112.788 162.183 114.64 162.596C115.498 162.786 116.372 162.889 117.23 163.113C117.873 163.286 118.525 163.604 119.185 163.708C120.086 163.845 121.149 164.061 121.972 164.595C115.909 166.447 109.624 167.394 103.372 168.35C101.811 168.591 100.259 168.824 98.7071 169.082C97.2064 169.332 95.6457 169.746 94.1192 169.728C91.1607 169.694 90.7577 166.843 90.0459 164.535C89.1884 161.752 88.1508 159.022 87.3275 156.214C87.9793 156.326 88.6224 156.197 89.2999 156.291ZM87.7906 155.06C87.8249 155.068 87.8506 155.077 87.8849 155.086C87.8335 155.103 87.8078 155.12 87.8163 155.154C87.8163 155.12 87.7992 155.094 87.7906 155.06ZM101.288 154.93C101.503 151.52 103.372 146.438 107.72 147.506C108.054 147.592 108.457 147.936 108.826 148.074C108.226 148.169 107.634 148.367 107.085 148.625C105.859 149.203 104.847 150.116 104.032 151.192C102.772 152.855 101.185 156.042 101.871 158.229C101.674 158.178 101.477 158.135 101.28 158.092C101.245 157.024 101.22 155.964 101.288 154.93ZM87.036 154.775C87.0017 154.793 86.9588 154.81 86.9245 154.836C86.9073 154.784 86.8902 154.741 86.8816 154.689C86.9331 154.724 86.9845 154.75 87.036 154.775ZM132.1 165.43C128.515 165.913 124.982 166.714 121.483 167.618C114.254 169.487 107.12 171.847 99.7276 173.045C92.1898 174.276 84.4205 173.76 76.8312 173.441C68.1958 173.07 59.569 172.424 50.9593 171.649C46.5001 171.253 42.0409 170.814 37.5817 170.366C35.4207 170.15 33.2682 169.935 31.1072 169.711C29.2721 169.522 26.4937 169.728 25.1645 168.221C22.5233 164.491 21.2284 160.064 19.5562 155.852C17.8068 151.451 16.0917 147.049 14.5053 142.587C11.9327 135.343 9.17138 128.194 6.4101 121.019C4.75505 116.73 3.08284 112.449 1.35061 108.185C1.31631 108.099 1.26486 108.03 1.21341 107.97C1.22198 107.901 1.22198 107.832 1.21341 107.763C0.964722 106.359 3.38298 106.54 4.2491 106.549C6.42725 106.574 8.59682 106.557 10.775 106.531C15.7144 106.471 20.6453 106.299 25.5761 106.101C35.3349 105.696 45.0851 105.127 54.8439 104.903C57.5709 104.843 60.3065 104.809 63.0334 104.809C64.4484 104.809 65.8633 104.809 67.2783 104.835C68.1872 104.852 69.2163 104.86 69.4135 105.98C69.4393 106.152 69.525 106.264 69.6279 106.333C70.7084 109.494 71.5059 112.733 72.4063 115.946C73.4097 119.538 74.6531 123.052 75.8794 126.566C77.0799 130.012 78.2805 133.466 79.4639 136.92C80.0042 138.487 80.5701 140.046 81.1018 141.614C81.7021 143.38 82.0622 145.214 82.6025 146.997C83.0656 148.522 83.6487 150.004 84.2661 151.468C84.532 152.097 84.8321 152.7 85.1408 153.303C85.6468 154.302 85.8268 155.387 86.1441 156.455C87.1303 159.737 88.3223 162.958 89.2398 166.249C89.7372 168.032 90.569 170.056 92.4728 170.685C94.7453 171.434 97.5751 170.461 99.8305 170.099C107.703 168.833 115.669 167.894 123.293 165.43C123.782 165.275 123.807 164.707 123.55 164.414C123.524 164.362 123.499 164.319 123.456 164.276C122.555 163.251 120.883 162.726 119.622 162.519C118.422 162.312 117.23 161.839 116.012 161.606C114.066 161.244 112.196 160.598 110.267 160.133C108.92 159.814 107.574 159.513 106.219 159.211C106.631 158.91 106.999 158.557 107.291 158.169C108.38 156.731 108.646 155.241 110.584 154.629C112.188 154.121 114.169 154.379 115.661 155.137C116.981 155.809 118.027 156.92 118.945 158.057C120.034 159.41 120.849 161.184 122.247 162.226C123.276 162.993 124.425 163.38 125.685 163.518C128.009 163.777 130.325 164.199 132.64 164.535C134.166 164.758 135.693 164.991 137.219 165.241C135.513 165.275 133.789 165.198 132.1 165.43ZM235.545 162.528C234.361 164.147 233.289 165.008 231.334 165.637C227.767 166.8 223.925 166.533 220.238 166.834C215.967 167.187 211.825 167.661 207.52 167.48C203.378 167.308 199.236 167.317 195.095 167.342C177.927 167.454 160.673 168.075 143.685 165.077C143.651 165.069 143.616 165.069 143.582 165.06C145.066 164.336 146.481 163.432 147.861 162.665C149.448 161.787 150.888 161.33 152.346 160.193C153.667 159.16 154.919 158.057 155.931 156.713C156.977 155.335 157.92 153.837 158.795 152.346C159.833 150.572 161.196 149.151 162.362 147.48C162.439 147.368 162.525 147.256 162.611 147.135C163.443 146.929 164.249 146.601 164.841 145.981C164.892 145.929 164.926 145.869 164.969 145.817C165.038 145.809 165.106 145.8 165.166 145.783C168.374 145.18 171.529 144.293 174.634 143.276C177.652 142.286 180.628 141.166 183.595 140.046C186.605 138.909 189.795 137.264 193.011 136.885C194.511 136.713 195.909 136.584 197.324 136.007C198.499 135.524 199.554 134.835 200.591 134.12C203.224 132.294 206.002 130.933 209.132 130.193C210.968 129.753 212.751 129.607 214.466 129.693C214.749 129.857 215.024 130.029 215.29 130.21C216.619 131.123 217.879 132.131 219.028 133.259C221.55 135.74 223.556 138.875 225.597 141.76C227.535 144.5 229.413 147.29 231.274 150.081C232.235 151.528 233.306 152.958 234.13 154.483C234.747 155.62 235.245 156.808 235.845 157.954C235.879 158.953 236.539 159.608 237.388 159.987C237.371 160.012 237.363 160.03 237.345 160.055C236.685 160.831 236.136 161.709 235.545 162.528Z" fill="#77C6C4"/>
</svg>
