<svg width="66" height="88" viewBox="0 0 66 88" fill="none" xmlns="http://www.w3.org/2000/svg">
<path opacity="0.6" d="M2.05792 83C1.96459 83 1.88526 82.972 1.81992 82.916C1.76392 82.86 1.73592 82.7853 1.73592 82.692V73.522C1.73592 73.4193 1.76392 73.34 1.81992 73.284C1.88526 73.228 1.96459 73.2 2.05792 73.2H2.40792C2.54792 73.2 2.64592 73.2607 2.70192 73.382L5.87992 79.57L9.07192 73.382C9.13726 73.2607 9.23526 73.2 9.36592 73.2H9.70192C9.80459 73.2 9.88392 73.228 9.93992 73.284C9.99592 73.34 10.0239 73.4193 10.0239 73.522V82.692C10.0239 82.7853 9.99126 82.86 9.92592 82.916C9.86992 82.972 9.79526 83 9.70192 83H9.44992C9.35659 83 9.28192 82.972 9.22592 82.916C9.16992 82.86 9.14192 82.7853 9.14192 82.692V75.104L6.46792 80.368C6.38392 80.5547 6.23926 80.648 6.03392 80.648H5.72592C5.52059 80.648 5.37592 80.5547 5.29192 80.368L2.61792 75.104V82.692C2.61792 82.7853 2.58992 82.86 2.53392 82.916C2.47792 82.972 2.40326 83 2.30992 83H2.05792ZM15.2498 83.14C14.2791 83.14 13.5231 82.846 12.9818 82.258C12.4498 81.6607 12.1698 80.8907 12.1418 79.948L12.1278 79.36L12.1418 78.772C12.1698 77.8293 12.4498 77.064 12.9818 76.476C13.5231 75.8787 14.2791 75.58 15.2498 75.58C16.2204 75.58 16.9718 75.8787 17.5038 76.476C18.0451 77.064 18.3298 77.8293 18.3578 78.772C18.3671 78.8653 18.3718 79.0613 18.3718 79.36C18.3718 79.6587 18.3671 79.8547 18.3578 79.948C18.3298 80.8907 18.0451 81.6607 17.5038 82.258C16.9718 82.846 16.2204 83.14 15.2498 83.14ZM15.2498 82.328C15.9124 82.328 16.4444 82.118 16.8458 81.698C17.2564 81.2687 17.4758 80.662 17.5038 79.878C17.5131 79.7847 17.5178 79.612 17.5178 79.36C17.5178 79.108 17.5131 78.9353 17.5038 78.842C17.4758 78.058 17.2564 77.456 16.8458 77.036C16.4444 76.6067 15.9124 76.392 15.2498 76.392C14.5871 76.392 14.0504 76.6067 13.6398 77.036C13.2384 77.456 13.0238 78.058 12.9958 78.842L12.9818 79.36L12.9958 79.878C13.0238 80.662 13.2384 81.2687 13.6398 81.698C14.0504 82.118 14.5871 82.328 15.2498 82.328ZM20.5924 83C20.4991 83 20.4244 82.972 20.3684 82.916C20.3124 82.86 20.2844 82.7853 20.2844 82.692V76.028C20.2844 75.9347 20.3124 75.86 20.3684 75.804C20.4244 75.748 20.4991 75.72 20.5924 75.72H20.8304C20.9237 75.72 20.9984 75.748 21.0544 75.804C21.1104 75.86 21.1384 75.9347 21.1384 76.028V76.686C21.4184 76.322 21.7357 76.0467 22.0904 75.86C22.4544 75.6733 22.9211 75.58 23.4904 75.58C24.4051 75.58 25.1097 75.874 25.6044 76.462C26.0991 77.0407 26.3464 77.792 26.3464 78.716V82.692C26.3464 82.7853 26.3184 82.86 26.2624 82.916C26.2064 82.972 26.1317 83 26.0384 83H25.8004C25.7071 83 25.6324 82.972 25.5764 82.916C25.5204 82.86 25.4924 82.7853 25.4924 82.692V78.786C25.4924 78.03 25.3057 77.442 24.9324 77.022C24.5684 76.602 24.0411 76.392 23.3504 76.392C22.6784 76.392 22.1417 76.6067 21.7404 77.036C21.3391 77.456 21.1384 78.0393 21.1384 78.786V82.692C21.1384 82.7853 21.1104 82.86 21.0544 82.916C20.9984 82.972 20.9237 83 20.8304 83H20.5924ZM31.2582 86.08C30.5302 86.08 29.9469 85.954 29.5082 85.702C29.0695 85.45 28.7615 85.1607 28.5842 84.834C28.4162 84.5167 28.3322 84.2367 28.3322 83.994C28.3322 83.91 28.3602 83.84 28.4162 83.784C28.4815 83.728 28.5562 83.7 28.6402 83.7H28.8362C28.9202 83.7 28.9855 83.7187 29.0322 83.756C29.0882 83.8027 29.1349 83.882 29.1722 83.994C29.4615 84.8433 30.1335 85.268 31.1882 85.268C31.9909 85.268 32.5835 85.1 32.9662 84.764C33.3489 84.4373 33.5402 83.8493 33.5402 83V82.034C32.9989 82.7713 32.2149 83.14 31.1882 83.14C30.1802 83.14 29.4335 82.8133 28.9482 82.16C28.4722 81.4973 28.2202 80.6947 28.1922 79.752L28.1782 79.36L28.1922 78.968C28.2202 78.0253 28.4722 77.2273 28.9482 76.574C29.4335 75.9113 30.1802 75.58 31.1882 75.58C32.2055 75.58 32.9895 75.9487 33.5402 76.686V76.042C33.5402 75.9487 33.5682 75.874 33.6242 75.818C33.6802 75.7527 33.7549 75.72 33.8482 75.72H34.0722C34.1655 75.72 34.2402 75.7527 34.2962 75.818C34.3615 75.874 34.3942 75.9487 34.3942 76.042V82.86C34.3942 83.8587 34.1609 84.6427 33.6942 85.212C33.2275 85.7907 32.4155 86.08 31.2582 86.08ZM31.2722 82.328C32.0095 82.328 32.5649 82.0853 32.9382 81.6C33.3115 81.1053 33.5122 80.5267 33.5402 79.864C33.5495 79.7707 33.5542 79.6027 33.5542 79.36C33.5542 79.1173 33.5495 78.9493 33.5402 78.856C33.5122 78.1933 33.3115 77.6193 32.9382 77.134C32.5649 76.6393 32.0095 76.392 31.2722 76.392C30.5162 76.392 29.9609 76.6347 29.6062 77.12C29.2609 77.596 29.0742 78.212 29.0462 78.968L29.0322 79.36L29.0462 79.752C29.0742 80.508 29.2609 81.1287 29.6062 81.614C29.9609 82.09 30.5162 82.328 31.2722 82.328ZM39.449 83.14C38.4783 83.14 37.7223 82.846 37.181 82.258C36.649 81.6607 36.369 80.8907 36.341 79.948L36.327 79.36L36.341 78.772C36.369 77.8293 36.649 77.064 37.181 76.476C37.7223 75.8787 38.4783 75.58 39.449 75.58C40.4196 75.58 41.171 75.8787 41.703 76.476C42.2443 77.064 42.529 77.8293 42.557 78.772C42.5663 78.8653 42.571 79.0613 42.571 79.36C42.571 79.6587 42.5663 79.8547 42.557 79.948C42.529 80.8907 42.2443 81.6607 41.703 82.258C41.171 82.846 40.4196 83.14 39.449 83.14ZM39.449 82.328C40.1116 82.328 40.6436 82.118 41.045 81.698C41.4556 81.2687 41.675 80.662 41.703 79.878C41.7123 79.7847 41.717 79.612 41.717 79.36C41.717 79.108 41.7123 78.9353 41.703 78.842C41.675 78.058 41.4556 77.456 41.045 77.036C40.6436 76.6067 40.1116 76.392 39.449 76.392C38.7863 76.392 38.2496 76.6067 37.839 77.036C37.4376 77.456 37.223 78.058 37.195 78.842L37.181 79.36L37.195 79.878C37.223 80.662 37.4376 81.2687 37.839 81.698C38.2496 82.118 38.7863 82.328 39.449 82.328ZM48.583 83C48.4897 83 48.415 82.972 48.359 82.916C48.303 82.86 48.275 82.7853 48.275 82.692V73.522C48.275 73.4287 48.303 73.354 48.359 73.298C48.415 73.2327 48.4897 73.2 48.583 73.2H51.565C52.5357 73.2 53.301 73.3447 53.861 73.634C54.4303 73.914 54.8317 74.3293 55.065 74.88C55.3077 75.4307 55.4383 76.1307 55.457 76.98C55.4663 77.26 55.471 77.6287 55.471 78.086C55.471 78.5527 55.4663 78.926 55.457 79.206C55.4383 80.102 55.3077 80.8253 55.065 81.376C54.8317 81.9173 54.4397 82.3233 53.889 82.594C53.3383 82.8647 52.587 83 51.635 83H48.583ZM51.565 82.16C52.3117 82.16 52.8997 82.062 53.329 81.866C53.7583 81.6607 54.0663 81.3433 54.253 80.914C54.449 80.4753 54.5563 79.8827 54.575 79.136C54.5843 78.856 54.589 78.506 54.589 78.086C54.589 77.6753 54.5843 77.33 54.575 77.05C54.5563 76.0047 54.309 75.244 53.833 74.768C53.3663 74.2827 52.587 74.04 51.495 74.04H49.157V82.16H51.565ZM58.0576 83C57.9643 83 57.8896 82.972 57.8336 82.916C57.7776 82.86 57.7496 82.7853 57.7496 82.692V73.522C57.7496 73.4287 57.7776 73.354 57.8336 73.298C57.8896 73.2327 57.9643 73.2 58.0576 73.2H61.7116C62.6356 73.2 63.3356 73.438 63.8116 73.914C64.2876 74.39 64.5256 74.9873 64.5256 75.706C64.5256 76.2567 64.4043 76.7093 64.1616 77.064C63.9189 77.4187 63.6296 77.6753 63.2936 77.834C63.6949 78.0393 64.0309 78.352 64.3016 78.772C64.5816 79.192 64.7216 79.6773 64.7216 80.228C64.7216 80.7133 64.6049 81.1707 64.3716 81.6C64.1476 82.02 63.8163 82.3607 63.3776 82.622C62.9389 82.874 62.4163 83 61.8096 83H58.0576ZM61.5296 77.456C62.2203 77.456 62.7429 77.3067 63.0976 77.008C63.4616 76.7 63.6436 76.266 63.6436 75.706C63.6436 75.1553 63.4616 74.74 63.0976 74.46C62.7429 74.18 62.2203 74.04 61.5296 74.04H58.6316V77.456H61.5296ZM61.6696 82.16C62.3509 82.16 62.8829 81.9827 63.2656 81.628C63.6483 81.264 63.8396 80.7973 63.8396 80.228C63.8396 79.6493 63.6483 79.1827 63.2656 78.828C62.8829 78.4733 62.3509 78.296 61.6696 78.296H58.6316V82.16H61.6696Z" fill="#342B2B"/>
<path fill-rule="evenodd" clip-rule="evenodd" d="M34.2802 58L32.739 57.4723C32.739 57.4723 32.9273 49.6013 30.1073 49.0364C28.228 46.8517 30.4088 -43.6128 37.1755 48.7348C37.1755 48.7348 34.8444 49.902 34.4309 51.8986C33.9795 53.8572 34.2802 58 34.2802 58Z" fill="white"/>
<path fill-rule="evenodd" clip-rule="evenodd" d="M34.2802 58L32.739 57.4723C32.739 57.4723 32.9273 49.6013 30.1073 49.0364C28.228 46.8517 30.4088 -43.6128 37.1755 48.7348C37.1755 48.7348 34.8444 49.902 34.4309 51.8986C33.9795 53.8572 34.2802 58 34.2802 58Z" fill="#A6A385"/>
<path fill-rule="evenodd" clip-rule="evenodd" d="M35.1076 50.3923C35.1076 50.3923 48.6043 41.5038 45.4458 23.0113C42.401 9.56652 35.2204 5.16002 34.4309 3.46508C33.5664 2.25989 32.739 0.151123 32.739 0.151123L33.3032 37.5491C33.3032 37.587 32.1377 48.9986 35.108 50.3927" fill="white"/>
<path fill-rule="evenodd" clip-rule="evenodd" d="M35.1076 50.3923C35.1076 50.3923 48.6043 41.5038 45.4458 23.0113C42.401 9.56652 35.2204 5.16002 34.4309 3.46508C33.5664 2.25989 32.739 0.151123 32.739 0.151123L33.3032 37.5491C33.3032 37.587 32.1377 48.9986 35.108 50.3927" fill="#499D4A"/>
<path fill-rule="evenodd" clip-rule="evenodd" d="M31.9499 50.8815C31.9499 50.8815 19.2802 42.2191 20.0322 26.9663C20.7464 11.7131 29.6938 4.21836 31.4232 2.86258C32.5512 1.65739 32.5887 1.20519 32.6641 0C33.4536 1.69493 33.3033 25.3469 33.4157 28.1336C33.7539 38.8672 32.8144 48.8482 31.9499 50.8815Z" fill="white"/>
<path fill-rule="evenodd" clip-rule="evenodd" d="M31.9499 50.8815C31.9499 50.8815 19.2802 42.2191 20.0322 26.9663C20.7464 11.7131 29.6938 4.21836 31.4232 2.86258C32.5512 1.65739 32.5887 1.20519 32.6641 0C33.4536 1.69493 33.3033 25.3469 33.4157 28.1336C33.7539 38.8672 32.8144 48.8482 31.9499 50.8815Z" fill="#58AA50"/>
</svg>
