<svg width="58" height="88" viewBox="0 0 58 88" fill="none" xmlns="http://www.w3.org/2000/svg">
<path opacity="0.6" d="M8.74249 83C8.64916 83 8.56983 82.972 8.50449 82.916C8.44849 82.86 8.42049 82.7853 8.42049 82.692V73.522C8.42049 73.4193 8.44849 73.34 8.50449 73.284C8.56983 73.228 8.64916 73.2 8.74249 73.2H9.09249C9.23249 73.2 9.33049 73.2607 9.38649 73.382L12.5645 79.57L15.7565 73.382C15.8218 73.2607 15.9198 73.2 16.0505 73.2H16.3865C16.4892 73.2 16.5685 73.228 16.6245 73.284C16.6805 73.34 16.7085 73.4193 16.7085 73.522V82.692C16.7085 82.7853 16.6758 82.86 16.6105 82.916C16.5545 82.972 16.4798 83 16.3865 83H16.1345C16.0412 83 15.9665 82.972 15.9105 82.916C15.8545 82.86 15.8265 82.7853 15.8265 82.692V75.104L13.1525 80.368C13.0685 80.5547 12.9238 80.648 12.7185 80.648H12.4105C12.2052 80.648 12.0605 80.5547 11.9765 80.368L9.30249 75.104V82.692C9.30249 82.7853 9.27449 82.86 9.21849 82.916C9.16249 82.972 9.08783 83 8.99449 83H8.74249ZM20.3943 85.66C20.3197 85.66 20.2543 85.632 20.1983 85.576C20.1423 85.52 20.1143 85.4547 20.1143 85.38C20.1143 85.3333 20.1423 85.24 20.1983 85.1L21.2763 82.58L18.6023 76.28C18.5463 76.14 18.5183 76.0467 18.5183 76C18.5183 75.9253 18.5463 75.86 18.6023 75.804C18.6583 75.748 18.7237 75.72 18.7983 75.72H19.0923C19.2417 75.72 19.349 75.79 19.4143 75.93L21.7663 81.474L24.1743 75.93C24.249 75.79 24.3563 75.72 24.4963 75.72H24.7763C24.851 75.72 24.9163 75.748 24.9723 75.804C25.0283 75.86 25.0563 75.9253 25.0563 76C25.0563 76.0467 25.0283 76.14 24.9723 76.28L20.9963 85.45C20.931 85.59 20.8237 85.66 20.6743 85.66H20.3943ZM29.7355 83.14C29.0075 83.14 28.3728 83.0233 27.8315 82.79C27.2995 82.5473 26.8888 82.2347 26.5995 81.852C26.3195 81.4693 26.1702 81.0587 26.1515 80.62C26.1515 80.5453 26.1795 80.48 26.2355 80.424C26.2915 80.368 26.3615 80.34 26.4455 80.34H26.7255C26.8935 80.34 26.9962 80.4333 27.0335 80.62C27.0988 81.068 27.3555 81.46 27.8035 81.796C28.2515 82.132 28.8955 82.3 29.7355 82.3C30.6222 82.3 31.2802 82.1413 31.7095 81.824C32.1482 81.4973 32.3675 81.0447 32.3675 80.466C32.3675 80.1113 32.2602 79.822 32.0455 79.598C31.8402 79.3647 31.5368 79.164 31.1355 78.996C30.7342 78.8187 30.1275 78.5993 29.3155 78.338C28.5968 78.1047 28.0322 77.876 27.6215 77.652C27.2202 77.428 26.9215 77.1527 26.7255 76.826C26.5295 76.4993 26.4315 76.084 26.4315 75.58C26.4315 75.104 26.5575 74.6747 26.8095 74.292C27.0708 73.9093 27.4442 73.6107 27.9295 73.396C28.4148 73.172 28.9935 73.06 29.6655 73.06C30.3562 73.06 30.9488 73.186 31.4435 73.438C31.9382 73.6807 32.3115 73.9933 32.5635 74.376C32.8155 74.7493 32.9508 75.1273 32.9695 75.51C32.9695 75.5847 32.9415 75.65 32.8855 75.706C32.8388 75.762 32.7688 75.79 32.6755 75.79H32.3955C32.3302 75.79 32.2648 75.7713 32.1995 75.734C32.1342 75.6873 32.0968 75.6127 32.0875 75.51C32.0315 75.0433 31.7795 74.6607 31.3315 74.362C30.8928 74.054 30.3375 73.9 29.6655 73.9C28.9468 73.9 28.3728 74.04 27.9435 74.32C27.5235 74.6 27.3135 75.02 27.3135 75.58C27.3135 75.944 27.4068 76.2473 27.5935 76.49C27.7895 76.7233 28.0788 76.9287 28.4615 77.106C28.8442 77.274 29.4088 77.4793 30.1555 77.722C30.9208 77.9647 31.5182 78.198 31.9475 78.422C32.3768 78.646 32.6988 78.9167 32.9135 79.234C33.1375 79.5513 33.2495 79.962 33.2495 80.466C33.2495 81.306 32.9368 81.964 32.3115 82.44C31.6862 82.9067 30.8275 83.14 29.7355 83.14ZM41.6141 83.91C41.4741 83.91 41.3247 83.8027 41.1661 83.588L40.5501 82.734C39.9901 83.0047 39.3367 83.14 38.5901 83.14C36.1914 83.14 34.9594 81.852 34.8941 79.276C34.8847 78.996 34.8801 78.604 34.8801 78.1C34.8801 77.596 34.8847 77.204 34.8941 76.924C34.9314 75.6547 35.2767 74.6933 35.9301 74.04C36.5834 73.3867 37.4701 73.06 38.5901 73.06C39.7101 73.06 40.5967 73.3867 41.2501 74.04C41.9034 74.6933 42.2487 75.6547 42.2861 76.924C42.3047 77.484 42.3141 77.876 42.3141 78.1C42.3141 78.324 42.3047 78.716 42.2861 79.276C42.2394 80.6107 41.8987 81.5907 41.2641 82.216L42.1601 83.476C42.1881 83.532 42.2021 83.5833 42.2021 83.63C42.2021 83.7047 42.1741 83.77 42.1181 83.826C42.0621 83.882 41.9967 83.91 41.9221 83.91H41.6141ZM38.5901 82.3C39.4301 82.3 40.0974 82.048 40.5921 81.544C41.0961 81.0307 41.3667 80.2513 41.4041 79.206C41.4227 78.646 41.4321 78.2773 41.4321 78.1C41.4321 77.9227 41.4227 77.554 41.4041 76.994C41.3667 75.9487 41.0961 75.174 40.5921 74.67C40.0881 74.1567 39.4207 73.9 38.5901 73.9C37.7594 73.9 37.0921 74.1567 36.5881 74.67C36.0841 75.174 35.8134 75.9487 35.7761 76.994C35.7667 77.274 35.7621 77.6427 35.7621 78.1C35.7621 78.5573 35.7667 78.926 35.7761 79.206C35.8134 80.2513 36.0794 81.0307 36.5741 81.544C37.0781 82.048 37.7501 82.3 38.5901 82.3ZM44.8496 83C44.7563 83 44.6816 82.972 44.6256 82.916C44.5696 82.86 44.5416 82.7853 44.5416 82.692V73.508C44.5416 73.4147 44.5696 73.34 44.6256 73.284C44.6816 73.228 44.7563 73.2 44.8496 73.2H45.1156C45.2089 73.2 45.2836 73.228 45.3396 73.284C45.3956 73.34 45.4236 73.4147 45.4236 73.508V82.16H50.2536C50.3563 82.16 50.4356 82.188 50.4916 82.244C50.5476 82.3 50.5756 82.3793 50.5756 82.482V82.692C50.5756 82.7853 50.5429 82.86 50.4776 82.916C50.4216 82.972 50.3469 83 50.2536 83H44.8496Z" fill="#342B2B"/>
<path d="M53.424 43.9448C50.2683 43.8663 47.8226 44.1813 45.7713 45.0472C45.1795 45.2832 44.2327 45.2835 44.1538 46.0315C44.4694 46.3465 44.5088 46.8583 44.785 47.2912C45.2589 48.0784 46.0867 49.1414 46.8363 49.6928C47.6645 50.3225 48.4932 50.9523 49.3607 51.5035C50.8994 52.4484 52.6352 52.9994 54.1342 53.9443C55.0023 54.495 55.8696 55.2041 56.7375 55.7945C57.1715 56.109 57.4474 56.6213 58 56.8179V56.7C57.7236 56.3455 57.6447 55.8339 57.3688 55.4402C56.9747 55.0464 56.5797 54.6921 56.1852 54.2984C55.0413 52.7633 53.6213 51.4247 52.0829 50.3225C50.8207 49.4564 48.059 48.2755 47.5464 46.8187C47.5464 46.8187 47.5067 46.7796 47.4675 46.7402C48.3352 46.6615 49.3607 46.3465 50.1894 46.1103C51.5306 45.7557 52.7534 45.8347 54.1342 45.4803C54.7652 45.3228 55.3964 45.126 56.0274 44.9291V44.575C55.3177 43.8663 54.8049 42.9216 54.0553 42.2523C52.0435 40.5197 49.8342 38.8272 47.5464 37.4101C46.3234 36.6226 44.7453 36.1108 43.4436 35.4417C42.9707 35.2053 42.1814 35.0874 41.9055 34.6937C41.1951 33.8277 40.8006 32.6862 40.2879 31.6625C39.1443 29.4971 38.0394 27.0959 37.0531 24.8128C36.3434 23.2773 35.9095 21.7418 35.0415 20.3249C30.9784 13.6325 26.5603 9.57765 19.7755 5.60136C18.3158 4.77479 16.5801 4.42044 14.7261 3.98758C13.7403 3.94799 12.7537 3.86947 11.7677 3.82987C11.1364 3.55427 10.5052 2.80644 9.95289 2.4521C7.70481 1.03473 1.90562 -2.03557 0.248872 2.01924C-0.816328 4.57793 1.82694 7.09725 2.73388 8.39673C3.40502 9.30205 4.2725 10.3255 4.74593 11.3491C5.02209 12.018 5.10077 12.7271 5.37693 13.4356C6.00839 15.1673 6.59971 17.0967 7.42842 18.7109C7.86239 19.5375 8.33559 20.4034 8.88792 21.1515C9.20353 21.5843 9.75563 21.7814 9.87421 22.4899C9.32211 23.2773 9.28243 24.4585 8.96659 25.4425C7.54655 29.891 8.09911 35.4024 10.1107 38.6697C10.7417 39.6536 12.2409 41.8195 14.2527 40.9924C16.028 40.284 15.6335 38.04 16.1459 36.0717C16.2647 35.5988 16.1858 35.2842 16.4223 34.9693V35.0482C16.9746 36.1502 17.5267 37.2134 18.0396 38.3156C19.2626 40.2444 21.3926 42.2523 23.1677 43.5909C24.1147 44.2992 24.8641 45.5197 26.0476 45.9528V45.8344H25.9685C25.7318 45.4801 25.3767 45.3228 25.0614 45.047C24.3514 44.3388 23.5622 43.4726 23.0101 42.6852C21.3536 40.4804 19.8936 38.0398 18.5919 35.5202C17.9609 34.3002 17.4084 32.9616 16.8957 31.7413C16.6588 31.2684 16.6588 30.5601 16.2645 30.3241C15.6727 31.1901 14.805 31.9381 14.371 33.0009C13.6219 34.6937 13.5428 36.7801 13.2666 38.9451C13.1088 38.9849 13.1875 38.9451 13.1086 39.0243C11.8466 38.7089 11.4126 37.4101 10.939 36.3077C9.7554 33.5128 9.55814 29.0249 10.5841 25.7969C10.8603 24.9701 12.0438 22.372 11.5704 21.5846C11.3337 20.8365 10.5444 20.4034 10.1107 19.8131C9.59805 19.065 9.0455 18.1206 8.69066 17.2935C7.74381 15.089 7.27039 12.6482 6.24487 10.4436C5.77145 9.41993 4.94341 8.35736 4.2725 7.41244C3.52315 6.34964 2.69466 5.60136 2.10288 4.3417C1.90585 3.90884 1.62946 3.20015 1.94507 2.7277C2.02398 2.41273 2.18156 2.29484 2.4974 2.2161C3.01027 1.78278 4.46999 2.33398 4.98241 2.57021C6.44213 3.16033 7.66491 3.71198 8.88792 4.53856C9.44001 4.93227 10.0318 5.68033 10.7417 5.87719H11.5702C12.8326 6.15256 14.2525 5.95593 15.436 6.31004C17.527 6.97913 19.4202 7.96342 21.1166 9.02645C26.2844 12.2938 30.5442 16.9392 33.4242 22.4899C33.8977 23.395 34.0947 24.2222 34.5287 25.1667C35.3574 27.0959 36.3829 29.0642 37.2109 30.9538C38.0394 32.8038 38.8282 34.6937 40.0118 36.2292C40.6036 37.0555 42.9702 37.4888 44.0354 37.9219C44.8245 38.276 46.0475 38.5912 46.7574 39.0241C48.0985 39.8504 49.4396 40.7958 50.7021 41.7009C51.3333 42.1733 53.3055 43.1576 53.424 43.9448Z" fill="#00546B"/>
<path d="M13.1873 9.73462C12.5168 9.73462 12.0436 9.81382 11.5702 9.9317V10.0104H11.6491C11.9649 10.6404 12.5168 11.0735 12.9111 11.6244C13.2269 12.2542 13.5029 12.8843 13.8187 13.5143C13.8579 13.4747 13.8974 13.4355 13.8974 13.4355C14.4499 13.0416 14.7259 12.4119 14.7259 11.467C14.4892 11.1916 14.4497 10.916 14.2525 10.6404C14.016 10.2464 13.5029 10.0498 13.1873 9.73462Z" fill="#00546B"/>
</svg>
