<svg width="54" height="88" viewBox="0 0 54 88" fill="none" xmlns="http://www.w3.org/2000/svg">
<path opacity="0.6" d="M1.68357 83C1.59024 83 1.51557 82.972 1.45957 82.916C1.40357 82.86 1.37557 82.7853 1.37557 82.692V73.522C1.37557 73.4287 1.40357 73.354 1.45957 73.298C1.51557 73.2327 1.59024 73.2 1.68357 73.2H1.97757C2.0989 73.2 2.1969 73.256 2.27157 73.368L7.43757 81.264V73.522C7.43757 73.4287 7.46557 73.354 7.52157 73.298C7.57757 73.2327 7.65224 73.2 7.74557 73.2H7.99757C8.10024 73.2 8.17957 73.228 8.23557 73.284C8.29157 73.34 8.31957 73.4193 8.31957 73.522V82.678C8.31957 82.7713 8.29157 82.8507 8.23557 82.916C8.17957 82.972 8.1049 83 8.01157 83H7.70357C7.58224 83 7.48424 82.944 7.40957 82.832L2.25757 74.964V82.692C2.25757 82.7853 2.2249 82.86 2.15957 82.916C2.10357 82.972 2.0289 83 1.93557 83H1.68357ZM13.5359 83.14C12.5652 83.14 11.8092 82.846 11.2679 82.258C10.7359 81.6607 10.4559 80.8907 10.4279 79.948L10.4139 79.36L10.4279 78.772C10.4559 77.8293 10.7359 77.064 11.2679 76.476C11.8092 75.8787 12.5652 75.58 13.5359 75.58C14.5065 75.58 15.2579 75.8787 15.7899 76.476C16.3312 77.064 16.6159 77.8293 16.6439 78.772C16.6532 78.8653 16.6579 79.0613 16.6579 79.36C16.6579 79.6587 16.6532 79.8547 16.6439 79.948C16.6159 80.8907 16.3312 81.6607 15.7899 82.258C15.2579 82.846 14.5065 83.14 13.5359 83.14ZM13.5359 82.328C14.1985 82.328 14.7305 82.118 15.1319 81.698C15.5425 81.2687 15.7619 80.662 15.7899 79.878C15.7992 79.7847 15.8039 79.612 15.8039 79.36C15.8039 79.108 15.7992 78.9353 15.7899 78.842C15.7619 78.058 15.5425 77.456 15.1319 77.036C14.7305 76.6067 14.1985 76.392 13.5359 76.392C12.8732 76.392 12.3365 76.6067 11.9259 77.036C11.5245 77.456 11.3099 78.058 11.2819 78.842L11.2679 79.36L11.2819 79.878C11.3099 80.662 11.5245 81.2687 11.9259 81.698C12.3365 82.118 12.8732 82.328 13.5359 82.328ZM21.2025 83.14C20.1945 83.14 19.4479 82.8133 18.9625 82.16C18.4865 81.4973 18.2345 80.6947 18.2065 79.752L18.1925 79.36L18.2065 78.968C18.2345 78.0253 18.4865 77.2273 18.9625 76.574C19.4479 75.9113 20.1945 75.58 21.2025 75.58C22.2199 75.58 23.0039 75.9487 23.5545 76.686V73.368C23.5545 73.2747 23.5825 73.2 23.6385 73.144C23.6945 73.088 23.7692 73.06 23.8625 73.06H24.1005C24.1939 73.06 24.2685 73.088 24.3245 73.144C24.3805 73.2 24.4085 73.2747 24.4085 73.368V82.692C24.4085 82.7853 24.3805 82.86 24.3245 82.916C24.2685 82.972 24.1939 83 24.1005 83H23.8625C23.7692 83 23.6945 82.972 23.6385 82.916C23.5825 82.86 23.5545 82.7853 23.5545 82.692V82.034C23.0132 82.7713 22.2292 83.14 21.2025 83.14ZM21.2865 82.328C22.0239 82.328 22.5792 82.0853 22.9525 81.6C23.3259 81.1053 23.5265 80.5267 23.5545 79.864C23.5639 79.7707 23.5685 79.5887 23.5685 79.318C23.5685 79.0473 23.5639 78.8653 23.5545 78.772C23.5452 78.3707 23.4565 77.9927 23.2885 77.638C23.1205 77.274 22.8685 76.9753 22.5325 76.742C22.1965 76.5087 21.7812 76.392 21.2865 76.392C20.5305 76.392 19.9752 76.6347 19.6205 77.12C19.2752 77.596 19.0885 78.212 19.0605 78.968L19.0465 79.36C19.0465 80.228 19.2145 80.942 19.5505 81.502C19.8865 82.0527 20.4652 82.328 21.2865 82.328ZM29.3936 83.14C28.507 83.14 27.793 82.8507 27.2516 82.272C26.7103 81.684 26.4023 80.9 26.3276 79.92L26.3136 79.36L26.3276 78.8C26.4023 77.8293 26.7056 77.05 27.2376 76.462C27.779 75.874 28.4976 75.58 29.3936 75.58C30.3643 75.58 31.1203 75.902 31.6616 76.546C32.2123 77.19 32.4876 78.072 32.4876 79.192V79.402C32.4876 79.4953 32.455 79.57 32.3896 79.626C32.3336 79.682 32.259 79.71 32.1656 79.71H27.1816V79.85C27.2003 80.2887 27.2983 80.6993 27.4756 81.082C27.6623 81.4553 27.919 81.7587 28.2456 81.992C28.5723 82.216 28.955 82.328 29.3936 82.328C29.907 82.328 30.3223 82.23 30.6396 82.034C30.9663 81.8287 31.1996 81.6233 31.3396 81.418C31.4236 81.306 31.4843 81.236 31.5216 81.208C31.5683 81.18 31.6476 81.166 31.7596 81.166H31.9836C32.0676 81.166 32.1376 81.1893 32.1936 81.236C32.2496 81.2827 32.2776 81.3433 32.2776 81.418C32.2776 81.614 32.1516 81.852 31.8996 82.132C31.657 82.4027 31.3163 82.6407 30.8776 82.846C30.439 83.042 29.9443 83.14 29.3936 83.14ZM31.6336 78.926V78.87C31.6336 78.1513 31.4283 77.5587 31.0176 77.092C30.6163 76.6253 30.075 76.392 29.3936 76.392C28.7123 76.392 28.171 76.6253 27.7696 77.092C27.3776 77.5587 27.1816 78.1513 27.1816 78.87V78.926H31.6336ZM40.8416 83.14C39.8709 83.14 39.0682 82.902 38.4336 82.426C37.8082 81.9407 37.4769 81.2267 37.4396 80.284C37.4396 80.1907 37.4629 80.116 37.5096 80.06C37.5656 80.004 37.6402 79.976 37.7336 79.976H38.0136C38.1069 79.976 38.1769 80.004 38.2236 80.06C38.2796 80.116 38.3122 80.186 38.3216 80.27C38.3776 80.9607 38.6342 81.474 39.0916 81.81C39.5582 82.1367 40.1416 82.3 40.8416 82.3C41.6442 82.3 42.2602 82.0387 42.6896 81.516C43.1282 80.984 43.3476 80.284 43.3476 79.416V74.04H38.1816C38.0882 74.04 38.0136 74.012 37.9576 73.956C37.9016 73.9 37.8736 73.8253 37.8736 73.732V73.508C37.8736 73.4147 37.9016 73.34 37.9576 73.284C38.0136 73.228 38.0882 73.2 38.1816 73.2H43.9076C44.0102 73.2 44.0896 73.228 44.1456 73.284C44.2016 73.34 44.2296 73.4193 44.2296 73.522V79.43C44.2296 80.55 43.9309 81.4507 43.3336 82.132C42.7456 82.804 41.9149 83.14 40.8416 83.14ZM49.7199 83.14C48.9919 83.14 48.3572 83.0233 47.8159 82.79C47.2839 82.5473 46.8732 82.2347 46.5839 81.852C46.3039 81.4693 46.1545 81.0587 46.1359 80.62C46.1359 80.5453 46.1639 80.48 46.2199 80.424C46.2759 80.368 46.3459 80.34 46.4299 80.34H46.7099C46.8779 80.34 46.9805 80.4333 47.0179 80.62C47.0832 81.068 47.3399 81.46 47.7879 81.796C48.2359 82.132 48.8799 82.3 49.7199 82.3C50.6065 82.3 51.2645 82.1413 51.6939 81.824C52.1325 81.4973 52.3519 81.0447 52.3519 80.466C52.3519 80.1113 52.2445 79.822 52.0299 79.598C51.8245 79.3647 51.5212 79.164 51.1199 78.996C50.7185 78.8187 50.1119 78.5993 49.2999 78.338C48.5812 78.1047 48.0165 77.876 47.6059 77.652C47.2045 77.428 46.9059 77.1527 46.7099 76.826C46.5139 76.4993 46.4159 76.084 46.4159 75.58C46.4159 75.104 46.5419 74.6747 46.7939 74.292C47.0552 73.9093 47.4285 73.6107 47.9139 73.396C48.3992 73.172 48.9779 73.06 49.6499 73.06C50.3405 73.06 50.9332 73.186 51.4279 73.438C51.9225 73.6807 52.2959 73.9933 52.5479 74.376C52.7999 74.7493 52.9352 75.1273 52.9539 75.51C52.9539 75.5847 52.9259 75.65 52.8699 75.706C52.8232 75.762 52.7532 75.79 52.6599 75.79H52.3799C52.3145 75.79 52.2492 75.7713 52.1839 75.734C52.1185 75.6873 52.0812 75.6127 52.0719 75.51C52.0159 75.0433 51.7639 74.6607 51.3159 74.362C50.8772 74.054 50.3219 73.9 49.6499 73.9C48.9312 73.9 48.3572 74.04 47.9279 74.32C47.5079 74.6 47.2979 75.02 47.2979 75.58C47.2979 75.944 47.3912 76.2473 47.5779 76.49C47.7739 76.7233 48.0632 76.9287 48.4459 77.106C48.8285 77.274 49.3932 77.4793 50.1399 77.722C50.9052 77.9647 51.5025 78.198 51.9319 78.422C52.3612 78.646 52.6832 78.9167 52.8979 79.234C53.1219 79.5513 53.2339 79.962 53.2339 80.466C53.2339 81.306 52.9212 81.964 52.2959 82.44C51.6705 82.9067 50.8119 83.14 49.7199 83.14Z" fill="#342B2B"/>
<path d="M24.9415 0.618778C26.3797 -0.204399 28.2528 -0.208117 29.6897 0.618778C36.9186 4.70347 44.1498 8.78177 51.3774 12.8689C52.7368 13.6347 53.6462 15.1476 53.6323 16.714V41.2891C53.6424 42.9204 52.6433 44.4695 51.2091 45.2179C44.0039 49.28 36.8025 53.3472 29.5986 57.4094C28.1307 58.2486 26.22 58.184 24.798 57.2759C22.6379 56.0237 20.4741 54.7777 18.3138 53.5267C17.8723 53.2635 17.3747 53.0541 17.063 52.626C17.3385 52.2546 17.8312 52.2084 18.2315 52.0462C19.1332 51.7595 19.9614 51.2992 20.7897 50.8526C20.9992 50.7093 21.2549 50.7642 21.4557 50.8925C23.3028 51.9516 25.1336 53.0415 26.987 54.0904C27.3823 54.3187 27.7827 54.0156 28.1206 53.8272C35.1911 49.8312 42.2702 45.8502 49.3394 41.8528C49.6013 41.7268 49.7461 41.4488 49.7249 41.1619C49.7298 33.0551 49.7261 24.9468 49.7273 16.84C49.7573 16.5145 49.5689 16.2152 49.2745 16.0819C42.0944 12.0383 34.918 7.98854 27.7391 3.94392C27.6147 3.85841 27.4674 3.81253 27.3164 3.81231C27.1655 3.81209 27.018 3.85754 26.8934 3.94268C19.7145 7.98854 12.5393 12.042 5.36044 16.0854C5.06711 16.2189 4.87025 16.5132 4.90516 16.84C4.9064 24.9468 4.90516 33.0551 4.90516 41.1631C4.89271 41.3031 4.92346 41.4436 4.99326 41.5655C5.06306 41.6875 5.16857 41.7852 5.29557 41.8454C7.2113 42.9318 9.1295 44.0105 11.0465 45.0931C12.1264 45.6744 13.4524 46.0198 14.6422 45.5744C15.6922 45.1978 16.4282 44.1263 16.4082 43.0115C16.4181 34.952 16.4032 26.8913 16.4156 18.833C16.3894 18.4752 16.7288 18.1796 17.0766 18.2133C17.9971 18.2071 18.9188 18.2009 19.8393 18.2158C20.2235 18.2071 20.4879 18.5924 20.4404 18.9528C20.4367 27.0633 20.4503 35.1741 20.4342 43.2846C20.4367 45.4461 19.5486 47.7981 17.5492 48.8557C15.0861 50.1317 12.0417 49.8611 9.60832 48.6376C7.50173 47.5862 5.4914 46.3453 3.4222 45.2189C1.98427 44.4746 0.990056 42.9194 1.00018 41.2893V16.714C0.985098 15.1152 1.93056 13.5748 3.33234 12.8202C10.5362 8.75471 17.7389 4.68612 24.9415 0.618778Z" fill="#8CC84B"/>
<path d="M31.2262 17.6421C34.3681 17.4399 37.7317 17.5223 40.559 19.0701C42.748 20.2562 43.9616 22.7456 44.0002 25.1775C43.9391 25.5056 43.5961 25.6865 43.283 25.664C42.3714 25.6628 41.4596 25.6764 40.548 25.6578C40.1613 25.6727 39.9366 25.3162 39.888 24.9743C39.6261 23.8107 38.9915 22.6582 37.8963 22.097C36.215 21.2552 34.2656 21.2976 32.4323 21.3151C31.094 21.3862 29.6548 21.5021 28.5209 22.2891C27.6505 22.8853 27.3861 24.0887 27.6967 25.0579C27.9897 25.7539 28.793 25.9784 29.4503 26.1854C33.2367 27.1757 37.2491 27.0772 40.9632 28.3804C42.5009 28.9117 44.0052 29.9445 44.5315 31.5545C45.22 33.7124 44.9182 36.2916 43.383 38.0239C42.138 39.4494 40.3247 40.2253 38.5162 40.6467C36.1103 41.1831 33.6135 41.1968 31.1702 40.9586C28.8727 40.6967 26.4819 40.0931 24.7083 38.5277C23.1917 37.2108 22.4509 35.159 22.5245 33.1786C22.542 32.8442 22.875 32.6109 23.1954 32.6384C24.1134 32.631 25.0314 32.6285 25.9494 32.6396C26.316 32.6134 26.5879 32.9303 26.6067 33.2759C26.7761 34.3845 27.1927 35.5481 28.1595 36.2054C30.0252 37.4091 32.3662 37.3267 34.5026 37.3604C36.2724 37.2819 38.2592 37.2581 39.7036 36.0883C40.4656 35.4211 40.6914 34.3048 40.4854 33.3445C40.2623 32.5337 39.4142 32.1559 38.6858 31.9088C34.9479 30.7264 30.8907 31.1554 27.189 29.8183C25.6862 29.2872 24.233 28.2831 23.6556 26.7392C22.85 24.5541 23.2191 21.8514 24.9153 20.1775C26.5691 18.5126 28.9564 17.8714 31.2262 17.6419V17.6421Z" fill="#8CC84B"/>
</svg>
