<svg width="70" height="70" viewBox="0 0 70 70" fill="none" xmlns="http://www.w3.org/2000/svg">
<circle cx="35" cy="35" r="34.5" fill="white" stroke="#43606E"/>
<circle cx="35" cy="35" r="26" fill="#ADD7D6"/>
<path d="M27.23 41.5C28.29 40.48 29.1 39.71 29.66 39.19C31.64 37.29 33.09 35.84 34.01 34.84C34.93 33.84 35.65 32.81 36.17 31.75C36.71 30.69 36.98 29.54 36.98 28.3C36.98 26.86 36.6 25.75 35.84 24.97C35.1 24.19 34.18 23.8 33.08 23.8C31.86 23.8 30.8 24.24 29.9 25.12C29.02 26 28.43 27.26 28.13 28.9H27.53C27.53 27.9 27.57 27.11 27.65 26.53C27.73 25.93 27.93 25.42 28.25 25C28.81 24.32 29.61 23.75 30.65 23.29C31.71 22.83 32.82 22.6 33.98 22.6C35.56 22.6 36.95 23.02 38.15 23.86C39.37 24.68 39.98 26.16 39.98 28.3C39.98 29.56 39.68 30.74 39.08 31.84C38.5 32.94 37.74 33.97 36.8 34.93C35.88 35.87 34.57 37.09 32.87 38.59C31.11 40.17 29.93 41.24 29.33 41.8H36.08C37.3 41.8 38.23 41.54 38.87 41.02C39.51 40.5 39.83 39.71 39.83 38.65H40.43V40.6C40.43 42.2 39.58 43 37.88 43H27.23V41.5Z" fill="white"/>
</svg>
