<svg width="70" height="70" viewBox="0 0 70 70" fill="none" xmlns="http://www.w3.org/2000/svg">
<circle cx="35" cy="35" r="34.5" fill="white" stroke="#43606E"/>
<circle cx="35" cy="35" r="26" fill="#ADD7D6"/>
<path d="M32.71 43.6C31.29 43.6 30.08 43.34 29.08 42.82C28.08 42.3 27.14 41.51 26.26 40.45L26.83 39.94C27.59 40.78 28.41 41.4 29.29 41.8C30.17 42.2 31.16 42.4 32.26 42.4C33.56 42.4 34.63 41.99 35.47 41.17C36.33 40.33 36.76 39.09 36.76 37.45C36.76 35.91 36.34 34.75 35.5 33.97C34.68 33.19 33.5 32.8 31.96 32.8C31.06 32.8 30.21 32.85 29.41 32.95L28.21 33.1L27.01 31.9L27.31 23.2H38.56V24.4H29.77L29.5 31.75L30.46 31.69C31.6 31.63 32.3 31.6 32.56 31.6C34.48 31.6 36.16 32.04 37.6 32.92C39.04 33.78 39.76 35.29 39.76 37.45C39.76 39.03 39.37 40.28 38.59 41.2C37.83 42.1 36.92 42.72 35.86 43.06C34.8 43.42 33.75 43.6 32.71 43.6Z" fill="white"/>
</svg>
