<svg width="70" height="70" viewBox="0 0 70 70" fill="none" xmlns="http://www.w3.org/2000/svg">
<circle cx="35" cy="35" r="34.5" fill="white" stroke="#43606E"/>
<circle cx="35" cy="35" r="26" fill="#ADD7D6"/>
<path d="M33.31 43.6C31.31 43.6 29.66 43.18 28.36 42.34C27.06 41.48 26.41 40.2 26.41 38.5C26.41 37.14 26.84 36.04 27.7 35.2C28.58 34.34 29.75 33.59 31.21 32.95C29.91 32.19 28.91 31.43 28.21 30.67C27.51 29.89 27.16 28.9 27.16 27.7C27.16 25.88 27.72 24.58 28.84 23.8C29.98 23 31.47 22.6 33.31 22.6C35.13 22.6 36.61 22.98 37.75 23.74C38.89 24.5 39.46 25.72 39.46 27.4C39.46 28.5 39.11 29.47 38.41 30.31C37.71 31.13 36.81 31.81 35.71 32.35C36.67 32.93 37.45 33.46 38.05 33.94C38.67 34.42 39.18 35.01 39.58 35.71C40 36.41 40.21 37.24 40.21 38.2C40.21 40.04 39.56 41.4 38.26 42.28C36.98 43.16 35.33 43.6 33.31 43.6ZM34.36 31.6C35.08 31.08 35.63 30.51 36.01 29.89C36.41 29.25 36.61 28.42 36.61 27.4C36.61 26.1 36.29 25.18 35.65 24.64C35.01 24.08 34.23 23.8 33.31 23.8C32.41 23.8 31.63 24.06 30.97 24.58C30.33 25.1 30.01 25.94 30.01 27.1C30.01 28.74 31.46 30.24 34.36 31.6ZM33.31 42.4C34.43 42.4 35.38 42.09 36.16 41.47C36.96 40.83 37.36 39.94 37.36 38.8C37.36 38 37.15 37.29 36.73 36.67C36.31 36.05 35.77 35.52 35.11 35.08C34.47 34.62 33.62 34.11 32.56 33.55C31.52 34.07 30.71 34.7 30.13 35.44C29.55 36.16 29.26 37.18 29.26 38.5C29.26 39.78 29.65 40.75 30.43 41.41C31.21 42.07 32.17 42.4 33.31 42.4Z" fill="white"/>
</svg>
