<svg width="70" height="70" viewBox="0 0 70 70" fill="none" xmlns="http://www.w3.org/2000/svg">
<circle cx="35" cy="35" r="34.5" fill="white" stroke="#43606E"/>
<circle cx="35" cy="35" r="26" fill="#ADD7D6"/>
<path d="M33.98 43.6C32.54 43.6 31.27 43.33 30.17 42.79C29.09 42.23 28.1 41.43 27.2 40.39L27.68 39.85C28.46 40.71 29.3 41.35 30.2 41.77C31.1 42.19 32.11 42.4 33.23 42.4C34.53 42.4 35.6 41.99 36.44 41.17C37.3 40.33 37.73 39.09 37.73 37.45C37.73 36.45 37.54 35.6 37.16 34.9C36.78 34.2 36.29 33.68 35.69 33.34C35.09 32.98 34.47 32.8 33.83 32.8C32.99 32.8 32.37 32.83 31.97 32.89C31.57 32.95 30.99 33.07 30.23 33.25L29.45 31.99L37.58 24.4H32.03C30.81 24.4 29.88 24.66 29.24 25.18C28.6 25.7 28.28 26.49 28.28 27.55H27.68V25.6C27.68 24 28.53 23.2 30.23 23.2H39.77V24.4L31.73 31.9C32.51 31.7 33.41 31.6 34.43 31.6C35.23 31.6 36.11 31.77 37.07 32.11C38.03 32.43 38.88 33.03 39.62 33.91C40.36 34.77 40.73 35.95 40.73 37.45C40.73 39.05 40.35 40.31 39.59 41.23C38.85 42.15 37.97 42.77 36.95 43.09C35.93 43.43 34.94 43.6 33.98 43.6Z" fill="white"/>
</svg>
