<svg width="70" height="70" viewBox="0 0 70 70" fill="none" xmlns="http://www.w3.org/2000/svg">
<circle cx="35" cy="35" r="34.5" fill="white" stroke="#43606E"/>
<circle cx="35" cy="35" r="26" fill="#ADD7D6"/>
<path d="M33.46 43.6C31.1 43.6 29.36 42.73 28.24 40.99C27.12 39.25 26.56 36.62 26.56 33.1C26.56 29.6 27.17 26.98 28.39 25.24C29.63 23.48 31.52 22.6 34.06 22.6C35.56 22.6 37.11 22.9 38.71 23.5L38.56 24.1C37.32 23.9 36.02 23.8 34.66 23.8C32.9 23.8 31.58 24.48 30.7 25.84C29.84 27.18 29.41 29.05 29.41 31.45C30.01 31.03 30.66 30.7 31.36 30.46C32.08 30.22 32.93 30.1 33.91 30.1C35.95 30.1 37.46 30.7 38.44 31.9C39.42 33.08 39.91 34.73 39.91 36.85C39.91 38.05 39.67 39.16 39.19 40.18C38.71 41.2 37.98 42.03 37 42.67C36.02 43.29 34.84 43.6 33.46 43.6ZM33.46 42.4C34.56 42.4 35.43 41.85 36.07 40.75C36.73 39.65 37.06 38.35 37.06 36.85C37.06 33.15 35.71 31.3 33.01 31.3C32.29 31.3 31.65 31.43 31.09 31.69C30.53 31.93 29.97 32.3 29.41 32.8C29.41 36.1 29.77 38.53 30.49 40.09C31.21 41.63 32.2 42.4 33.46 42.4Z" fill="white"/>
</svg>
