<svg width="297" height="189" viewBox="0 0 297 189" fill="none" xmlns="http://www.w3.org/2000/svg">
<path d="M296.41 183.102C286.856 183.284 277.302 183.217 267.758 183.006C263.073 182.9 258.388 182.756 253.703 182.574C251.192 182.478 248.641 182.603 246.159 182.257C243.782 181.931 241.396 181.969 239.001 181.989C237.532 181.998 236.064 182.017 234.596 182.037C233.185 182.046 231.398 182.286 231.524 180.31C231.659 178.238 233.369 176.703 233.243 174.573C233.234 174.496 233.214 174.419 233.195 174.362C233.301 171.963 233.678 169.526 233.263 167.138C232.809 164.538 231.224 163.127 229.341 161.429C228.771 160.911 228.182 160.355 227.583 159.798C228.22 159.012 228.597 157.832 228.974 156.997C230.094 154.56 231.215 152.114 232.548 149.783C233.813 147.567 235.32 145.475 236.663 143.297C237.89 141.302 239.184 139.316 240.952 137.743C241.271 137.464 241.821 137.148 242.353 136.793C242.536 136.687 242.71 136.572 242.855 136.428C243.56 135.872 244.053 135.21 243.57 134.394C243.212 133.79 242.575 133.684 241.841 133.819C241.358 133.589 240.826 133.416 240.372 133.243C237.542 132.14 234.567 131.603 231.621 130.912C230.809 130.72 230.181 130.451 229.37 130.758C228.22 131.19 227.322 132.14 226.25 132.725C225.052 133.387 224.009 134.068 223.023 135.047C221.507 136.543 219.971 137.743 218.251 138.999C217.749 139.374 217.256 139.748 216.773 140.141C216.735 140.074 216.686 140.016 216.619 139.968C216.619 139.949 216.628 139.94 216.628 139.92C216.638 139.824 216.648 139.728 216.657 139.633C216.667 139.527 216.657 139.441 216.628 139.364C216.599 137.791 216.184 136.332 215.72 134.807C215.16 132.975 214.783 131.094 214.407 129.214C213.614 125.223 213.112 121.299 212.967 117.231C212.735 110.439 212.146 103.455 210.552 96.8255C209.818 93.7652 208.9 90.4457 206.939 87.9322C205.201 85.6969 203.249 83.6246 201.008 81.869C197.077 78.7702 192.44 76.8899 187.542 75.9209C187.108 75.8346 186.663 75.7578 186.219 75.6811C186.364 75.6139 186.518 75.5468 186.663 75.47C189.61 73.9254 191.725 70.5101 192.913 67.5264C194.246 64.1782 194.865 60.6861 194.98 57.0981C195.087 53.9226 194.855 50.7567 195.232 47.6004C195.357 46.5834 195.377 45.5569 195.483 44.5496C195.55 43.9356 195.811 43.1393 195.879 42.3622C195.966 42.2663 196.024 42.1511 196.033 41.9976C196.7 34.8695 197.608 27.3961 195.367 20.4502C193.551 14.8091 189.561 9.7149 184.712 6.26118C179.872 2.81705 173.255 0.236347 167.266 0.0156922C163.808 -0.109026 160.147 0.533751 156.737 1.09018C153.008 1.70418 149.289 2.68274 145.947 4.47675C138.847 8.25667 133.205 15.1257 131.853 23.0885C131.003 25.2759 130.191 27.4057 129.506 29.6506C128.81 31.9147 127.438 33.8814 126.434 36.0208C124.637 39.8487 123.207 43.8492 121.671 47.7826C120.135 51.7065 118.204 55.4192 116.581 59.2951C114.987 63.0846 113.702 67.6991 115.335 71.6901C115.373 71.786 115.421 71.8628 115.46 71.9587C111.277 72.3904 107.056 72.7454 102.902 73.3882C99.1638 73.9638 95.3675 76.1224 92.4985 78.5112C89.6681 80.8712 87.4367 83.8837 85.8138 87.1743C84.1716 90.5033 83.3409 94.1201 81.9692 97.5546C78.4433 106.371 76.5403 115.658 74.1446 124.82C73.9321 125.645 73.7196 126.48 73.5071 127.305C73.3719 127.391 73.2559 127.525 73.2366 127.66C73.1883 127.938 73.1883 128.197 73.2076 128.465C71.1308 136.706 69.3147 145.024 68.2811 153.457C67.7981 157.438 67.5083 161.497 68.2135 165.468C68.9186 169.45 70.783 172.923 73.5168 175.887C76.3568 178.967 80.0758 180.626 84.0654 181.749C84.8478 181.969 85.6399 182.171 86.4224 182.372C83.65 182.545 80.868 182.737 78.0859 182.785C69.0442 182.938 60.0219 182.43 50.9898 182.228C43.8125 182.075 36.6352 182.113 29.4579 182.2C19.8366 182.305 10.2154 182.44 0.594085 182.449C-0.198028 182.449 -0.198028 183.668 0.594085 183.668C16.6682 183.668 32.7519 183.149 48.826 183.409C57.7808 183.552 66.7258 184.08 75.6902 184.032C80.4333 184.003 85.1376 183.648 89.8806 183.399C90.1801 183.38 90.4796 183.37 90.779 183.351C93.4548 183.898 96.1499 184.339 98.8837 184.732C101.289 185.078 103.685 185.442 106.1 185.721C108.756 186.028 111.413 186.008 114.059 186.335C115.267 186.479 116.484 186.344 117.692 186.498C118.909 186.651 120.087 186.853 121.314 186.92C123.632 187.045 125.951 186.853 128.24 186.498C130.713 186.114 133.128 185.548 135.524 184.828C135.698 184.771 135.881 184.723 136.055 184.665C138.286 184.924 140.798 184.531 142.518 183.965C143.416 183.668 144.276 183.37 145.164 183.121C149.618 183.284 154.013 184.262 158.495 184.08C163.566 183.879 168.541 182.478 173.593 182.324C178.182 182.181 182.278 184.406 186.209 186.478C187.156 186.977 188.103 187.467 189.069 187.937C189.484 188.138 189.899 188.359 190.344 188.464C190.556 188.512 190.749 188.532 190.943 188.551C191.281 188.8 191.657 188.858 192.063 188.839C192.092 188.858 192.121 188.867 192.16 188.896C192.459 189.098 192.749 188.982 192.923 188.752C192.971 188.743 193.029 188.743 193.077 188.733C196.42 188.349 199.656 187.486 202.853 186.469C206.08 185.442 209.267 184.282 212.533 183.389C213.692 183.073 214.484 182.948 215.034 181.806C215.459 180.924 215.363 180.262 214.764 179.513C213.885 178.41 212.919 177.393 211.856 176.472C210.639 175.407 209.2 174.602 207.992 173.546C207.239 172.884 206.534 172.04 206.92 171.042C207.374 169.862 208.562 170.361 209.538 170.601C209.808 170.668 210.079 170.745 210.359 170.822C211.161 171.8 211.934 172.807 212.687 173.824C213.624 175.11 214.561 177.441 216.348 177.681C217.507 177.835 218.811 177.23 218.956 175.993C219.13 174.448 217.662 173.201 216.58 172.357C214.986 171.119 212.996 170.323 211.064 169.757C210.61 169.21 210.137 168.663 209.654 168.135C209.103 167.531 207.905 166.591 207.191 165.631C207.403 165.305 207.625 164.979 207.828 164.653C208.253 163.981 208.659 163.3 209.045 162.619C209.248 162.6 209.461 162.59 209.673 162.59C209.857 162.964 210.147 163.339 210.601 163.761C211.818 164.874 213.025 165.986 214.31 167.023C216.822 169.056 219.565 170.697 222.733 171.493C223.062 171.58 223.39 171.388 223.487 171.071C223.864 169.843 223.439 168.845 222.511 167.982C222.019 167.521 221.449 167.157 220.908 166.754C220.299 166.303 219.855 165.708 219.285 165.257C218.618 164.73 217.488 164.432 216.715 164.039C215.72 163.521 214.735 162.984 213.711 162.523C212.735 162.091 211.711 161.717 210.668 161.554C210.63 161.324 210.62 161.074 210.63 160.806C213.856 160.489 216.851 161.516 219.71 162.916C221.062 164.768 222.83 166.245 224.607 167.684C225.303 168.241 226.694 169.814 227.747 168.96C229.022 167.934 227.525 165.833 226.568 165.219C224.675 164 222.579 162.878 220.483 161.909C219.961 161.161 219.497 160.345 219.198 159.501C219.034 159.041 218.802 158.331 218.976 157.851C219.237 157.151 219.874 156.93 220.541 156.911C221.159 157.381 221.729 157.899 222.424 158.244C223.458 158.772 224.337 159.386 225.1 160.201C225.148 160.326 225.235 160.432 225.361 160.489C225.419 160.556 225.477 160.624 225.535 160.691C225.738 160.95 226.192 160.902 226.404 160.691C226.452 160.643 226.491 160.604 226.539 160.556C227.051 161.007 227.573 161.468 228.075 161.919C230.046 163.693 231.823 165.142 232.132 167.934C232.364 170.073 232.046 172.241 231.949 174.381C231.949 174.486 231.968 174.582 232.007 174.659C232.017 176.952 227.757 182.449 232.239 183.188C234.586 183.572 237.214 183.197 239.58 183.188C240.952 183.178 242.324 183.169 243.686 183.217C245.125 183.265 246.526 183.6 247.955 183.668C258.282 184.138 268.666 184.291 279.012 184.377C284.808 184.425 290.614 184.416 296.41 184.301C297.192 184.301 297.202 183.082 296.41 183.102ZM234.074 145.12C232.606 147.384 231.176 149.591 229.969 152.008C229.37 153.208 228.809 154.416 228.249 155.635C227.998 156.191 227.399 158.091 226.675 158.954C225.506 157.918 224.279 156.94 222.965 156.278C222.424 155.999 221.719 155.798 221.014 155.731C220.599 155.453 220.164 155.184 219.691 154.954C219.555 154.886 219.42 154.829 219.285 154.762C219.507 154.397 219.691 153.985 219.913 153.543C220.734 151.893 221.738 150.358 222.811 148.862C225.177 145.59 228.201 143.326 231.582 141.158C233.079 140.199 234.538 138.961 236.17 138.27C237.03 137.906 237.87 137.57 238.807 137.455C239.039 137.426 239.281 137.407 239.513 137.388C238.865 138.04 238.267 138.74 237.716 139.479C236.364 141.292 235.282 143.249 234.074 145.12ZM166.136 136.908C166.097 136.783 166.03 136.668 165.923 136.591C167.382 134.5 170.377 133.684 172.038 131.689C172.463 131.181 172.898 130.672 173.294 130.144C173.709 129.598 173.932 128.955 174.434 128.446C174.859 128.015 175.757 127.708 176.376 127.957C176.791 128.12 176.907 128.619 177.148 128.926C177.554 129.454 177.96 129.732 178.52 130.135C181.292 132.082 184.2 133.819 187.117 135.546C188.083 136.121 189.03 136.706 189.957 137.301C190.035 137.407 190.151 137.474 190.276 137.503C192.15 138.712 193.986 139.968 195.821 141.283C197.647 142.597 199.192 144.113 200.718 145.677C198.197 144.391 195.637 143.192 193.029 142.098C188.682 140.266 184.287 138.587 179.592 137.915C177.274 137.589 174.926 137.426 172.589 137.292C171.439 137.225 170.29 137.167 169.131 137.1C168.551 137.071 167.005 137.167 166.136 136.908ZM202.37 145.619C199.202 142.184 195.56 139.239 191.561 136.793C191.397 136.697 191.232 136.591 191.068 136.495C190.972 134.663 189.948 133.032 189.832 131.152C189.716 129.204 189.387 127.276 189.3 125.328C191.001 126.863 192.952 128.101 194.952 129.329C199.028 131.842 203.288 134.183 207.567 136.352C209.345 137.253 211.653 137.532 213.267 138.664C214.088 139.249 214.658 140.266 215.537 140.784C215.508 140.928 215.527 141.043 215.585 141.148C213.643 142.894 211.963 144.89 210.736 147.25C210.253 148.181 209.664 149.514 209.335 150.867C208.166 149.927 206.901 149.092 205.626 148.353C205.162 148.085 204.698 147.826 204.235 147.567C203.597 146.943 202.979 146.291 202.37 145.619ZM184.673 115.917C183.553 112.885 182.722 109.576 182.181 106.39C181.94 104.98 181.795 103.541 181.466 102.15C181.263 101.277 180.935 100.442 180.771 99.5501C180.713 99.2431 180.433 98.1207 180.877 97.9C181.186 97.7465 182.162 98.8594 182.403 99.1184C183.524 100.337 184.065 101.949 184.577 103.493C185.581 106.525 186.373 109.604 187.021 112.732C187.407 114.593 187.822 116.493 187.977 118.392C188.083 119.649 188.074 120.906 188.054 122.162C186.605 120.272 185.475 118.114 184.673 115.917ZM241.57 135.2C241.754 135.402 241.773 135.565 241.686 135.69C241.541 135.785 241.387 135.872 241.251 135.958C240.788 136.112 240.112 136.16 239.783 136.188C239.6 136.208 239.426 136.217 239.242 136.227C239.745 136.006 240.247 135.785 240.749 135.574C240.865 135.526 241.232 135.344 241.57 135.2ZM219.681 139.45C220.792 138.664 221.835 137.954 222.801 136.985C223.806 135.987 224.733 134.951 225.969 134.222C226.829 133.713 227.66 133.243 228.491 132.668C229.399 132.034 229.94 131.756 231.012 132.015C233.147 132.533 235.311 132.927 237.426 133.541C238.228 133.771 239.3 134.001 240.208 134.366C239.397 134.74 238.643 135.171 238.209 135.363C235.852 136.399 233.514 137.484 231.302 138.807C230.181 139.479 229.032 140.199 228.017 141.033C227.177 141.724 226.626 142.664 225.844 143.422C223.767 145.427 221.787 147.307 220.106 149.668C219.314 150.771 218.309 152.018 217.788 153.275C217.672 153.563 217.614 153.841 217.604 154.119C216.966 153.918 216.319 153.754 215.662 153.639C214.571 153.457 213.576 153.793 212.542 153.889C212.494 153.889 212.436 153.879 212.378 153.879C212.349 153.802 212.301 153.726 212.233 153.649C211.992 153.409 211.74 153.16 211.499 152.92C211.228 152.574 210.91 152.258 210.601 151.96C210.514 151.884 210.436 151.807 210.349 151.73C210.707 149.591 212.185 147.048 212.929 145.945C214.706 143.336 217.102 141.273 219.681 139.45ZM216.773 155.117C216.416 155.203 216.01 155.232 215.527 155.213C214.957 155.184 214.397 155.078 213.856 154.915C214.416 154.829 214.986 154.762 215.585 154.858C215.981 154.915 216.377 155.011 216.773 155.117ZM142.334 59.8803C142.353 59.746 142.344 59.6308 142.295 59.5253C142.421 59.4294 142.498 59.2759 142.489 59.0648C142.45 58.3932 142.624 57.6449 142.633 56.9542C142.633 56.4649 142.662 55.966 142.672 55.4768C142.701 54.4215 142.817 53.2894 142.585 52.2533C142.556 52.119 142.45 51.9847 142.324 51.9079C142.286 51.7832 142.199 51.6681 142.044 51.5913C140.035 50.5648 139.803 47.0919 139.504 45.1348C139.214 43.2352 138.914 41.3645 139.021 39.4361C139.117 37.6037 139.475 34.8216 141.397 33.9581C144.343 32.6246 146.343 36.558 147.145 38.7166C147.299 39.1291 147.744 39.2059 148.053 39.062C148.313 39.2155 148.69 39.2059 148.893 38.8701C150.313 36.4909 151.936 34.0253 153.887 32.049C155.858 30.0439 158.65 29.6985 161.306 30.1686C163.48 30.5524 165.276 30.4756 167.334 29.5738C169.478 28.6432 171.072 27.0027 172.772 25.4581C175.796 22.7143 181.92 19.04 185.417 23.0405C188.219 26.2544 188.19 31.6461 188.547 35.7138C188.489 35.8289 188.46 35.9632 188.499 36.1167C188.982 38.4768 188.479 40.3475 187.436 42.4485C186.663 44.0123 185.794 45.5665 185.504 47.3125C184.934 50.7087 184.094 53.9514 182.703 57.1173C181.35 60.1969 179.621 63.1805 177.312 65.6461C177.061 65.9051 176.801 66.1737 176.549 66.4519C175.873 67.1523 175.158 67.9486 174.646 68.8216C173.478 70.0112 172.231 71.1049 170.85 72.0067C170.203 72.189 169.575 72.4288 169.024 72.6015C166.02 73.58 162.378 73.4266 159.461 72.2561C158.041 71.6805 156.698 70.865 155.433 70.0112C154.148 69.1382 153.491 68.0925 152.458 67.0276C150.941 65.4638 149.028 63.9 146.681 64.3893C146.381 64.4565 146.237 64.7443 146.246 65.0225C146.111 65.1952 146.072 65.4254 146.217 65.6653C149.956 72.0067 156.988 76.9186 164.658 75.7386C167.286 75.3357 169.546 74.3475 171.555 72.9948C172.251 72.8413 172.898 72.8221 173.41 73.1195C173.458 73.1483 173.497 73.1675 173.545 73.1771C174.144 74.549 173.816 76.9474 173.748 77.926C173.593 80.1517 173.217 83.2313 172.067 85.1788C169.672 89.2177 165.421 90.6376 161.084 91.4723C156.573 92.3357 151.743 92.4604 147.232 91.4531C142.827 90.4745 139.562 87.9226 136.007 85.3227C134.258 84.0467 132.442 82.9723 130.559 81.8978C128.443 80.689 126.492 79.2115 124.569 77.7245C123.159 76.6308 121.807 75.5563 120.184 74.7697C119.15 74.2708 118.31 73.6952 117.643 72.9852C125.613 72.2177 135.186 71.9012 140.209 64.917C141.262 63.4011 142.006 61.7031 142.334 59.8803ZM147.618 65.4638C150.062 65.4158 151.53 68.1692 153.027 69.6658C154.776 71.4311 157.461 72.8605 159.799 73.6568C161.509 74.2324 163.335 74.4435 165.151 74.3859C157.983 75.9113 151.24 71.3831 147.57 65.5405C147.579 65.5214 147.599 65.4926 147.618 65.4638ZM116.001 69.637C115.219 65.5885 116.909 61.2426 118.677 57.6641C120.29 54.3927 121.71 51.0637 123.033 47.6675C124.56 43.7437 125.96 39.7239 127.834 35.944C128.82 33.9581 130.037 32.1161 130.694 29.9864C131.36 27.8278 132.143 25.7555 132.954 23.6545C132.993 23.597 133.022 23.5202 133.041 23.4243C133.07 23.3475 133.08 23.2708 133.08 23.2036C134.326 16.277 138.779 10.5496 144.614 6.70249C150.767 2.64436 158.717 1.68499 165.933 1.25328C171.575 0.917498 177.844 3.46942 182.567 6.31874C187.446 9.25441 191.764 14.2143 193.754 19.5292C196.391 26.5422 195.55 34.1404 194.855 41.4412C194.72 41.5755 194.642 41.7578 194.671 41.988C194.797 42.8131 194.333 43.7533 194.266 44.5783C194.208 45.2019 194.198 45.8831 194.13 46.5355C193.879 48.8283 193.773 50.9869 193.783 53.3086C193.821 60.1873 193.164 67.5072 188.151 72.7742C185.775 75.2781 182.809 75.6043 179.718 74.5682C179.573 74.501 179.438 74.4243 179.293 74.3379C178.124 73.628 176.83 72.659 175.467 72.0259C175.236 71.6229 175.129 71.1624 175.216 70.6252C175.545 70.0592 175.835 69.4644 176.153 68.9079C177.11 67.8718 178.018 66.7781 178.906 65.6653C179.921 64.61 180.916 63.5546 181.679 62.1923C181.717 62.1252 181.737 62.0484 181.756 61.9813C181.843 61.8757 181.92 61.7702 182.007 61.6647C182.171 61.4632 182.152 61.2522 182.056 61.0987C183.05 59.3334 183.901 57.4818 184.615 55.5919C185.234 53.9706 185.746 52.3109 186.132 50.6224C186.489 49.0778 186.547 47.4469 187.108 45.9598C187.716 44.3193 188.682 42.8419 189.32 41.2206C189.977 39.58 190.035 37.9875 189.764 36.3086C189.793 36.2318 189.803 36.1455 189.793 36.0496C189.233 30.3029 188.924 18.8385 180.268 20.1624C176.327 20.7668 173.304 23.2996 170.473 25.8803C168.58 27.6071 166.397 29.0845 163.731 29.2189C161.702 29.3244 159.838 28.5377 157.761 28.8255C155.771 29.1037 154.013 30.0247 152.689 31.5213C150.989 33.4401 149.463 35.5699 148.12 37.7572C148.101 37.7668 148.091 37.7764 148.072 37.786C147.106 35.3972 145.406 32.5287 142.556 32.4999C139.822 32.4711 138.451 35.0038 138.016 37.3543C137.543 39.9158 137.852 42.4006 138.229 44.9333C138.586 47.3317 138.876 51.1788 141.271 52.5603C141.291 52.6754 141.349 52.7905 141.445 52.8673C141.59 53.8075 141.455 54.8532 141.436 55.7838C141.407 56.887 141.194 58.0095 141.262 59.084C141.262 59.1511 141.281 59.2183 141.3 59.2759C141.223 59.343 141.175 59.4486 141.146 59.5733C140.325 64.255 136.799 67.3729 132.577 69.119C127.834 71.0761 122.406 71.2392 117.334 71.7956C117.151 71.8148 116.967 71.834 116.783 71.8532C116.426 71.2008 116.156 70.4813 116.001 69.637ZM81.206 103.052C81.9499 100.874 82.8676 98.7731 83.679 96.6145C84.2876 94.9931 84.7126 93.3047 85.2729 91.6737C86.5576 87.9322 88.48 84.3633 91.1944 81.4469C93.9475 78.492 97.5989 76.1799 101.463 74.9519C103.772 74.2228 106.409 74.1844 108.814 73.9158C111.239 73.6472 113.673 73.3882 116.098 73.1195C116.832 74.1844 117.807 74.9807 119.073 75.5851C121.295 76.6404 123.111 78.1562 125.052 79.6337C127.052 81.1495 129.119 82.4734 131.312 83.7014C133.505 84.9294 135.495 86.474 137.504 87.961C141.339 90.7911 145.213 92.5947 150.004 93.1128C154.94 93.6404 159.818 93.1224 164.629 91.9232C169.14 90.7911 173.081 87.3374 174.105 82.7804C174.704 80.1133 175.042 77.5135 175.013 74.7793C175.004 74.2804 174.898 73.676 174.695 73.1004C175.612 74.2708 177.197 74.9327 178.53 75.4508C178.761 75.5372 178.993 75.6235 179.225 75.7002C181.003 76.5349 182.964 76.439 184.934 76.7268C189.861 77.4655 194.652 78.9333 198.786 81.773C201.018 83.308 202.998 85.1788 204.756 87.2319C205.79 88.4311 206.727 89.6111 207.364 91.0693C208.079 92.7194 208.64 94.4367 209.094 96.1732C210.784 102.582 211.441 109.451 211.682 116.061C211.827 120.071 212.146 123.947 212.89 127.899C213.238 129.761 213.624 131.622 214.059 133.464C214.522 135.402 215.286 137.205 215.382 139.191C214.938 138.731 214.542 138.165 214.107 137.839C213.102 137.052 211.644 136.706 210.465 136.284C206.785 134.97 203.481 132.687 200.023 130.902C197.077 129.386 194.101 127.621 191.455 125.635C190.662 125.041 189.919 124.359 189.242 123.63C189.242 121.894 189.31 120.148 189.175 118.421C189.02 116.493 188.615 114.574 188.219 112.684C187.465 109.019 186.576 105.326 185.234 101.824C184.644 100.279 182.867 96.3746 180.616 96.72C178.491 97.0558 179.679 100.51 180.037 101.718C180.916 104.731 180.974 107.916 181.911 110.928C182.519 112.866 182.896 114.9 183.669 116.79C184.432 118.67 185.436 120.522 186.547 122.22C186.992 122.901 187.494 123.525 188.025 124.11C188.025 124.494 188.035 124.868 188.045 125.252C188.112 127.247 188.489 129.195 188.586 131.181C188.634 132.111 188.731 133.003 189.04 133.886C189.262 134.529 189.523 135.104 189.677 135.718C186.016 133.589 182.152 131.574 178.877 128.955C177.709 128.015 177.168 126.345 175.342 126.614C173.497 126.883 172.714 128.878 171.7 130.154C170.28 131.929 168.657 132.888 166.793 134.126C166.175 134.538 165.064 135.315 164.629 136.169C164.619 136.16 164.61 136.15 164.59 136.14C164.098 135.91 163.431 136.035 162.91 136.064C162.446 136.083 161.171 136.304 160.784 136.227C160.504 136.035 160.07 136.035 159.886 136.39C158.978 138.232 158.311 140.218 157.539 142.117C156.563 144.525 155.51 146.703 154.235 148.977C151.859 153.227 149.994 157.784 147.647 162.063C147.067 161.967 146.005 162.772 145.667 163.012C143.793 164.317 141.957 165.679 140.122 167.042C138.644 168.126 137.098 169.661 135.446 170.467C134.432 170.965 132.829 170.754 131.698 170.63C129.892 170.438 128.202 169.795 126.608 168.951C124.898 168.049 123.246 167.003 121.633 165.938C119.904 164.797 118.184 163.741 116.368 162.725C112.746 160.71 109.626 158.168 105.646 156.872C105.597 156.191 105.346 155.568 105.201 154.877C104.989 153.85 104.776 152.891 104.361 151.912C103.617 150.157 102.728 148.449 101.714 146.837C100.941 145.619 100.072 144.429 99.1445 143.278C99.6372 141.628 100.101 139.959 100.555 138.299C100.98 137.532 101.395 136.764 101.608 135.872C101.772 135.191 101.927 134.519 102.013 133.819C102.129 132.821 102.458 131.958 102.651 130.979C102.67 130.874 102.69 130.768 102.709 130.662C103.308 128.657 103.936 126.652 104.583 124.657C104.844 124.331 105.114 124.014 105.356 123.678C106.071 123.083 106.757 122.46 107.413 121.807C109.307 119.918 110.582 117.548 111.857 115.226C112.987 113.183 114.311 111.235 115.103 109.029C115.779 107.148 116.243 105.114 115.644 103.167C115.286 102.006 114.62 100.116 113.258 99.8284C113.093 99.742 112.891 99.7132 112.726 99.7996C112.475 99.838 112.282 99.9914 112.205 100.231C112.021 100.788 111.77 101.306 111.635 101.862C109.461 106.688 107.858 111.859 106.051 116.8C105.24 119.016 104.399 121.222 103.627 123.458C100.449 126 96.7778 128.034 93.2809 130.01C91.4069 131.065 89.5329 131.977 87.5912 132.735C86.3548 131.948 85.0893 131.219 83.8432 130.576C82.1141 129.674 80.2787 128.984 78.4336 128.379C77.2455 127.995 76.038 127.372 74.7919 127.238C75.7579 123.602 76.8011 119.975 77.6512 116.31C78.7138 111.84 79.7184 107.388 81.206 103.052ZM112.668 102.764C112.726 102.697 112.765 102.611 112.784 102.495C112.784 102.486 112.784 102.476 112.794 102.467C112.968 102.025 113.151 101.594 113.345 101.162C114.04 101.68 114.455 103.225 114.61 103.829C114.977 105.239 114.61 106.736 114.175 108.089C113.19 111.149 111.239 114.008 109.626 116.771C108.582 118.555 107.288 120.129 105.829 121.548C105.781 121.52 105.723 121.51 105.675 121.491C107.8 115.178 110.166 108.933 112.668 102.764ZM102.081 127.727C101.898 128.648 101.675 129.55 101.473 130.461C100.767 132.946 100.091 135.44 99.415 137.925C98.8547 138.827 98.391 139.748 98.1109 140.774C98.0143 141.11 97.9757 141.455 97.937 141.801C96.6909 140.381 95.3868 139.019 94.0731 137.733C92.5468 136.236 90.779 134.845 88.934 133.579C90.837 132.783 92.5854 131.804 94.4305 130.778C97.1546 129.262 99.9753 127.65 102.603 125.808C102.371 126.422 102.216 127.065 102.081 127.727ZM99.3763 155.251C98.6035 154.848 97.8404 154.474 97.058 154.109C96.1403 153.678 96.1113 152.622 96.2755 151.673C96.5073 150.963 96.8358 150.253 97.058 149.658C97.541 148.344 97.995 147.02 98.42 145.686C98.4586 145.6 98.4973 145.523 98.5263 145.437C98.6229 145.206 98.7001 144.976 98.7678 144.746C99.1445 145.206 99.5019 145.667 99.84 146.156C100.903 147.682 101.82 149.293 102.632 150.963C103.124 151.989 103.617 153.045 103.878 154.157C104.013 154.752 104.226 155.443 104.351 156.105C104.177 156.134 104.052 156.22 103.965 156.335C102.583 155.961 101.183 155.664 99.7724 155.433C99.6275 155.376 99.5019 155.318 99.3763 155.251ZM74.4924 128.465C74.9464 128.168 76.4534 128.984 76.7335 129.079C78.453 129.703 80.1918 130.183 81.8629 130.931C83.3312 131.593 84.7609 132.389 86.1519 133.272C85.128 133.627 84.0847 133.953 83.0028 134.231C81.3027 134.673 79.3127 135.21 77.5739 134.692C76.8977 134.49 76.2795 134.145 75.7965 133.617C74.8885 132.629 74.9368 131.679 74.9174 130.471C74.9174 130.288 74.56 129.003 74.4538 128.638C74.4634 128.581 74.4731 128.523 74.4924 128.465ZM87.3691 181.394C85.0507 180.789 82.6647 180.233 80.4622 179.274C76.434 177.518 73.1014 174.352 71.1211 170.438C69.2084 166.648 68.8703 162.341 69.0829 158.168C69.5465 149.255 71.5558 140.342 73.681 131.679C73.7583 132.485 73.9418 133.176 74.4538 133.915C75.4681 135.363 77.1779 136.083 78.9263 136.092C81.6987 136.102 84.4614 135.104 87.06 134.26C87.1952 134.212 87.3208 134.164 87.456 134.126C88.6925 134.96 89.9 135.853 91.0688 136.735C92.9042 138.136 94.4111 139.815 95.9374 141.532C96.5556 142.223 97.1739 142.904 97.7921 143.595C97.5506 144.372 97.3091 145.139 97.058 145.907C96.7295 146.578 96.3721 147.24 96.1016 147.883C95.6186 149.044 95.0197 150.704 94.9521 152.21C94.7203 153.342 94.8072 154.445 95.7925 155.376C96.4977 156.038 97.3671 156.278 98.3041 156.421C98.6712 156.479 99.0286 156.537 99.386 156.604C99.4246 156.623 99.4536 156.633 99.4923 156.652C100.545 157.16 101.608 157.467 102.777 157.64C103.221 157.707 103.888 157.832 104.428 157.803C106.467 158.388 108.408 159.108 110.282 160.24C112.668 161.679 114.919 163.271 117.373 164.624C119.575 165.842 121.613 167.339 123.758 168.653C125.487 169.709 127.264 170.745 129.225 171.32C130.105 171.579 131.022 171.743 131.94 171.829C133.003 171.925 134.538 172.107 135.543 171.762C136.268 171.512 136.915 170.898 137.523 170.447C138.808 169.507 140.093 168.557 141.378 167.608C142.711 166.62 144.053 165.641 145.406 164.672C145.599 164.528 145.802 164.394 145.995 164.25C145.454 165.181 144.855 166.082 144.237 166.965C143.918 167.425 143.59 167.876 143.271 168.337C142.933 168.701 142.604 169.085 142.334 169.507C142.131 169.824 141.919 170.14 141.706 170.457C141.011 171.368 140.305 172.27 139.581 173.172C138.122 174.793 136.615 176.3 135.34 178.065C135.195 178.209 135.041 178.353 134.886 178.497C133.737 179.552 130.365 181.605 132.577 183.38C132.809 183.562 133.07 183.725 133.331 183.869C132.471 184.023 131.65 184.166 130.732 184.166C129.602 184.166 128.462 184.157 127.332 184.157C124.85 184.157 122.309 184.377 119.826 184.128C117.933 183.936 116.146 183.332 114.224 183.274C111.77 183.207 109.316 183.38 106.863 183.341C104.322 183.313 101.946 182.718 99.4536 182.392C97.2608 182.104 95.0487 182.037 92.8462 182.075C92.0734 182.085 91.3007 182.113 90.5279 182.152C89.4653 181.921 88.4123 181.672 87.3691 181.394ZM150.757 174.275C150.052 174.841 149.328 175.388 148.594 175.916C146.575 176.779 144.594 177.767 142.827 179.015C142.788 179.024 142.74 179.043 142.701 179.063C142.411 179.206 142.334 179.312 142.083 179.561C141.793 179.859 141.88 180.511 142.353 180.578C142.363 180.578 142.373 180.578 142.382 180.578C142.421 180.588 142.469 180.588 142.518 180.588C143.522 180.665 144.189 180.089 145.01 179.513C145.628 179.091 146.304 178.804 146.951 178.439C147.695 178.007 148.42 177.537 149.125 177.038C149.743 176.77 150.361 176.52 150.97 176.271C153.926 175.081 156.969 174.016 160.079 173.287C160.949 173.086 161.49 172.923 161.045 173.997C160.562 175.158 159.104 175.686 157.973 175.916C156.727 176.175 156.698 176.069 155.694 176.731C154.805 177.317 153.82 177.739 152.834 178.122C151.965 178.468 151.009 178.717 150.178 179.149C149.82 179.331 149.54 179.6 149.25 179.859C148.99 179.955 148.758 180.166 148.555 180.396C148.545 180.415 148.536 180.425 148.526 180.444C148.516 180.454 148.507 180.473 148.497 180.482C148.487 180.502 148.478 180.511 148.468 180.53C148.458 180.54 148.449 180.559 148.449 180.569C148.371 180.741 148.381 180.914 148.449 181.058C148.449 181.068 148.458 181.068 148.458 181.077C148.468 181.087 148.468 181.096 148.478 181.106C148.536 181.231 148.632 181.336 148.767 181.384C148.207 181.432 147.637 181.471 147.077 181.528C146.401 181.586 145.754 181.72 145.126 181.893C143.242 181.816 141.368 181.921 139.533 182.411C138.393 182.718 137.272 183.034 136.142 183.351C135.756 183.293 135.379 183.236 135.021 183.14C134.287 182.958 133.563 182.804 133.399 182.027C133.234 181.231 133.737 181.039 134.336 180.569C134.625 180.339 134.915 180.099 135.195 179.849C136.635 180.847 139.774 177.854 140.682 177.153C143.503 174.966 146.217 172.616 149.202 170.639C150.535 169.757 151.936 168.903 153.443 168.356C154.061 168.135 154.699 167.943 155.356 167.876C155.645 167.848 155.964 167.819 156.254 167.857C156.254 167.857 156.495 167.502 156.254 168.068C155.162 170.639 152.892 172.548 150.757 174.275ZM150.014 181.01C152.371 179.859 154.544 178.583 157.181 178.19C158.485 177.998 159.886 177.854 161.209 178.046C161.683 178.113 162.214 178.209 162.562 178.554C162.6 178.592 162.881 178.468 162.378 178.66C161.992 178.813 161.634 179.043 161.248 179.197C158.147 180.454 154.631 180.828 151.327 181.164C150.68 181.231 150.033 181.279 149.386 181.336C149.627 181.26 149.849 181.154 150.014 181.01ZM97.8018 183.456C99.0286 183.581 100.246 183.811 101.453 184.023C100.236 183.84 99.0189 183.648 97.8018 183.456ZM117.276 185.212C116.049 185.097 114.823 185.193 113.586 185.059C112.466 184.934 111.355 184.953 110.234 184.905C108.563 184.848 106.882 184.704 105.201 184.512C107.481 184.665 109.799 184.55 112.079 184.512C113.441 184.493 114.794 184.445 116.146 184.665C117.209 184.838 118.242 185.145 119.305 185.279C121.942 185.625 124.666 185.366 127.313 185.366C127.409 185.366 127.506 185.366 127.603 185.366C126.646 185.51 125.671 185.625 124.685 185.682C122.145 185.855 119.797 185.433 117.276 185.212ZM187.059 185.557C185.195 184.579 183.34 183.581 181.389 182.766C179.679 182.046 177.892 181.49 176.047 181.26C173.758 180.972 171.546 181.317 169.285 181.643C164.185 182.382 159.046 183.245 153.878 182.804C152.805 182.718 151.723 182.583 150.632 182.44C150.989 182.411 151.356 182.372 151.714 182.334C154.689 182.017 157.722 181.643 160.582 180.722C161.837 180.319 165.102 179.35 163.354 177.624C162.504 176.779 161.055 176.626 159.635 176.683C159.818 176.607 159.992 176.53 160.156 176.443C161.374 175.81 163.605 173.335 161.799 172.059C160.92 171.436 159.277 172.213 158.379 172.453C156.408 172.99 154.467 173.633 152.554 174.342C153.829 173.268 155.046 172.107 156.07 170.802C156.862 169.795 157.732 168.519 157.432 167.176C157.394 166.984 157.201 166.783 157.007 166.754C153.076 166.054 149.135 169.076 146.208 171.253C145.531 171.762 139.05 176.885 136.702 178.41C137.948 177.115 139.079 175.705 140.199 174.314C140.296 174.199 140.392 174.074 140.489 173.959C140.528 173.92 140.566 173.882 140.605 173.844C141.571 172.846 142.324 171.695 143.126 170.572C143.387 170.227 143.648 169.872 143.899 169.526C144.247 169.085 144.604 168.653 145.01 168.25C146.439 166.831 147.396 164.845 148.4 163.099C149.183 161.736 149.927 160.355 150.613 158.945C151.907 156.297 153.105 153.611 154.505 151.011C155.771 148.66 157.056 146.463 158.07 144.007C158.978 141.82 159.741 139.517 160.755 137.368C161.151 137.388 161.577 137.32 161.924 137.301C162.378 137.282 162.842 137.244 163.296 137.225C163.508 137.215 164.098 137.282 164.04 137.205C164.194 137.282 164.359 137.301 164.513 137.234C165.015 138.558 167.508 138.222 168.522 138.289C171.101 138.453 173.69 138.548 176.269 138.769C185.852 139.604 195.038 143.806 203.375 148.497C204.322 149.456 205.307 150.329 206.379 151.145C206.949 151.577 207.519 152.008 208.118 152.402C208.398 152.584 208.727 152.757 209.065 152.939C209.113 154.167 209.567 155.241 210.755 155.846C210.552 157.007 209.876 158.235 209.451 159.137C209.065 159.971 208.64 160.796 208.195 161.602C206.824 161.88 205.278 162.561 205.259 164.135C205.249 164.701 205.423 165.209 205.684 165.67C204.293 167.713 202.786 169.68 201.25 171.627C199.192 174.237 197.164 176.856 194.942 179.331C194.005 180.387 193.058 181.432 192.189 182.545C191.435 183.514 190.276 184.761 190.064 186.008C190.006 186.344 190.025 186.718 190.102 187.083C190.035 187.064 189.967 187.035 189.89 187.006C188.943 186.613 188.006 186.056 187.059 185.557ZM207.278 163.252C207.249 163.3 207.22 163.358 207.191 163.406C207.007 163.703 206.824 163.991 206.64 164.279C206.64 163.905 206.824 163.55 207.278 163.252ZM214.493 172.481C215.334 172.951 216.02 173.479 216.677 174.189C216.851 174.371 217.082 174.582 217.247 174.784C217.604 175.225 217.855 176.079 217.121 176.453C215.856 177.096 213.528 172.903 212.832 171.982C212.716 171.839 212.6 171.685 212.494 171.541C213.17 171.81 213.846 172.117 214.493 172.481ZM208.099 168.27C208.379 168.567 208.649 168.865 208.929 169.171C207.992 168.98 207.055 168.989 206.273 169.613C202.998 172.222 209.123 175.753 210.659 177.048C211.373 177.652 212.059 178.295 212.697 178.976C213.247 179.561 213.595 179.907 213.769 180.713C213.933 181.49 213.779 181.682 213.025 182.027C212.706 182.171 212.301 182.219 211.963 182.315C209.577 182.977 207.239 183.773 204.892 184.56C202.554 185.337 200.216 186.095 197.82 186.68C196.748 186.939 195.676 187.169 194.594 187.342C194.014 187.438 193.164 187.706 192.469 187.687C192.218 187.572 191.957 187.495 191.686 187.438C191.532 187.313 191.416 187.131 191.358 186.881C191.097 185.836 192.227 184.579 192.826 183.783C193.609 182.737 194.469 181.758 195.338 180.789C196.912 179.024 198.41 177.23 199.878 175.379C202.138 172.539 204.438 169.709 206.505 166.715C207.007 167.253 207.606 167.761 208.099 168.27ZM217.585 165.833C218.57 166.293 219.159 166.965 220.029 167.617C220.917 168.279 222.299 168.989 222.395 170.14C219.932 169.411 217.72 168.145 215.682 166.562C214.648 165.756 213.663 164.893 212.697 164.01C212.291 163.636 211.827 163.281 211.441 162.878C213.634 163.511 215.846 165.027 217.585 165.833ZM210.591 159.616C210.745 159.271 210.91 158.925 211.055 158.57C211.451 157.621 211.924 156.575 212.04 155.51C213.788 156.383 216.01 156.834 217.797 156.095C217.894 156.057 217.981 156.009 218.068 155.971C218.087 156.019 218.106 156.057 218.126 156.105C218.203 156.287 218.328 156.383 218.473 156.412C218.242 156.623 218.048 156.892 217.923 157.218C217.449 158.417 217.894 159.827 218.541 161.046C215.971 159.971 213.354 159.376 210.591 159.616ZM225.969 166.274C226.124 166.389 227.312 167.627 227.1 167.972C226.964 168.183 225.602 166.907 225.496 166.821C224.588 166.092 223.67 165.344 222.82 164.547C223.419 164.874 224.009 165.209 224.598 165.526C225.032 165.775 225.564 165.977 225.969 166.274Z" fill="#77C6C4"/>
</svg>
